<svg width="130" height="22" viewBox="0 0 130 22" fill="none" xmlns="http://www.w3.org/2000/svg">
<path d="M14.3901 19.0366C12.8434 20.6164 10.6774 21.494 8.45518 21.494C6.23291 21.494 4.15306 20.7653 2.5766 19.1856C0.324533 16.9335 0 14.1549 0 10.7636C0 7.37222 0.324533 4.59682 2.5766 2.34143C4.15306 0.761672 6.23291 0 8.45518 0C10.6774 0 12.8434 0.818032 14.3901 2.40111C15.589 3.6265 16.205 5.26582 16.3772 6.90189H12.5188C12.4261 5.99775 12.1082 5.3552 11.5849 4.70939C10.9093 3.85824 9.74018 3.42442 8.45518 3.42442C7.25628 3.42442 6.08719 3.92125 5.26584 4.79558C3.8318 6.28924 3.83182 8.86257 3.83182 10.7636C3.83182 12.6646 3.8318 15.2378 5.26584 16.7282C6.08387 17.6058 7.25297 18.1026 8.45518 18.1026C9.74349 18.1026 10.9126 17.6357 11.5849 16.7879C12.1082 16.1454 12.4261 15.4135 12.5188 14.5093H16.3772C16.205 16.1454 15.589 17.8112 14.3901 19.0366Z" fill="white"/>
<path d="M40.8024 21.1132V12.0783H32.2876V21.1132H28.522V0.377441H32.2876V8.47826H40.8024V0.377441H44.5713V21.1132H40.8024Z" fill="white"/>
<path d="M66.1479 13.6846H61.7663V21.1132H58.0205V0.377441H66.1512C70.9236 0.377441 73.4638 3.0402 73.4638 7.01444C73.4638 10.9887 70.9236 13.6846 66.1512 13.6846H66.1479ZM66.0021 3.67945H61.7629V10.3761H66.0021C68.5158 10.3761 69.6584 9.0348 69.6584 7.04436C69.6584 5.05393 68.5158 3.67945 66.0021 3.67945Z" fill="white"/>
<path d="M93.8353 3.88482V21.1132H90.0631V3.88482H83.9229V0.377441H99.9755V3.88482H93.8353Z" fill="white"/>
<path d="M122.936 21.494C119.191 21.494 116.15 19.0366 116.031 15.2346H119.688C119.837 17.225 121.181 18.2782 122.966 18.2782C124.751 18.2782 126.182 17.1654 126.182 15.2346C126.182 13.1316 124.513 12.1677 122.612 12.1677H121.092V8.97505H122.612C124.602 8.97505 125.742 8.15703 125.742 6.25601C125.742 4.79217 124.569 3.59665 122.966 3.59665C121.151 3.59665 119.863 4.5008 119.833 6.34221H116.147C116.203 2.51368 119.247 0.377441 122.963 0.377441C126.679 0.377441 129.454 2.6594 129.454 6.16998C129.454 8.01469 128.375 9.88587 126.53 10.5251C128.633 11.1146 129.865 13.1878 129.865 15.2941C129.865 19.3611 126.762 21.4906 122.933 21.4906L122.936 21.494Z" fill="white"/>
</svg>
