<svg width="141" height="42" viewBox="0 0 141 42" fill="none" xmlns="http://www.w3.org/2000/svg">
<path d="M21.3549 2.64287C19.8812 2.64287 18.5399 3.24554 17.5728 4.21261C16.5991 5.1863 15.9996 6.52428 15.9996 8.00137V13.3534H21.3549C22.8353 13.3534 24.1733 12.7574 25.147 11.7837C26.1141 10.8199 26.7135 9.47854 26.7135 7.99814C26.7135 6.51773 26.1141 5.18307 25.147 4.20938C24.1733 3.24231 22.8387 2.63947 21.3549 2.63947M13.3535 7.99814C13.3535 3.57348 16.9402 0 21.3549 0C25.7697 0 29.3597 3.57348 29.3597 7.99814C29.3597 12.4228 25.773 15.9963 21.3549 15.9963H15.9996V21.3549C15.9996 25.7697 12.4162 29.3597 7.99818 29.3597C3.58014 29.3597 0 25.7697 0 21.3549C0 16.9402 3.58014 13.3502 7.99818 13.3502H13.3568V7.99814H13.3535ZM7.99486 15.9963C6.51777 15.9963 5.17976 16.5891 4.20607 17.5694C3.239 18.5299 2.64618 19.8712 2.64618 21.3549C2.64618 22.8387 3.239 24.1766 4.20607 25.1437C5.17976 26.1075 6.51446 26.7068 7.99486 26.7068C9.47527 26.7068 10.8199 26.1075 11.7836 25.1437C12.7573 24.1766 13.3535 22.8353 13.3535 21.3549V15.9963H7.99486Z" fill="white"/>
<path d="M49.8868 20.5631C50.1517 18.4303 51.748 16.0789 55.0599 16.0789C57.8584 16.0789 59.9648 17.9733 60.233 20.5631H49.8868ZM60.5344 24.8951C59.1501 26.5212 57.4345 27.4254 55.5103 27.4254C52.4667 27.4254 50.3041 25.4681 49.8834 22.7888H63.2998C63.2998 17.2547 59.9317 13.5552 55.0864 13.5552C50.2411 13.5552 46.9922 17.2844 46.9922 21.7356C46.9922 25.9185 49.9696 29.9489 55.5335 29.9489C58.2757 29.9489 60.498 28.8958 62.6043 26.5543L60.5311 24.8951H60.5344Z" fill="white"/>
<path d="M84.8402 29.5878H87.546V19.6886C87.546 15.5653 84.8998 13.5518 81.5283 13.5518C79.4551 13.5518 77.3785 14.2737 76.4148 16.2575C75.1198 13.969 73.3745 13.5518 71.7848 13.5518C70.1951 13.5518 68.1682 14.1843 67.4462 15.7806H67.3866V13.9127H64.6775V29.5846H67.3866V20.1092C67.3866 17.4895 69.069 16.0754 71.3277 16.0754C73.189 16.0754 74.7555 17.2776 74.7555 19.99V29.5878H77.4646V20.1126C77.4646 17.4929 79.1504 16.0787 81.4058 16.0787C83.2703 16.0787 84.8368 17.2808 84.8368 19.9932V29.5912L84.8402 29.5878Z" fill="white"/>
<path d="M100.323 24.4445C100.323 25.9779 99.2072 27.5742 95.8987 27.5742C92.5901 27.5742 91.474 25.9779 91.474 24.4445C91.474 22.9112 92.5868 21.3148 95.8987 21.3148C99.2105 21.3148 100.323 22.9078 100.323 24.4445ZM100.234 20.7153C98.7866 19.4204 97.0446 18.9402 95.3886 18.9402C91.0269 18.9402 88.5894 21.4637 88.5894 24.3252C88.5894 27.8126 91.5998 29.9488 95.4217 29.9488C97.4983 29.9488 99.0317 29.3526 100.416 27.9054V29.5878H102.94V18.8773C102.94 15.1448 99.4523 13.5518 95.69 13.5518C94.2758 13.5518 92.4113 13.7605 90.0366 14.7573L91.2057 16.9828C92.6828 16.2873 94.0672 15.9297 95.541 15.9297C97.6473 15.9297 100.234 16.4992 100.234 19.0891V20.7153Z" fill="white"/>
<path d="M114.972 29.5878H117.678V19.4468C117.678 15.2043 114.67 13.5518 111.633 13.5518C109.885 13.5518 108.143 14.3333 107.328 15.7475H107.268V13.9127H104.562V29.5846H107.268V20.7683C107.268 17.7877 108.805 16.0754 111.329 16.0754C114.008 16.0754 114.968 18.1221 114.968 20.4669V29.5846L114.972 29.5878Z" fill="white"/>
<path d="M127.335 16.0789C130.342 16.0789 132.932 18.5164 132.932 21.7653C132.932 24.7758 130.342 27.4254 127.335 27.4254C124.328 27.4254 121.738 24.7758 121.738 21.7653C121.738 18.5164 124.321 16.0789 127.335 16.0789ZM118.85 21.7653C118.85 26.2529 122.218 29.9489 127.335 29.9489C132.452 29.9489 135.817 26.2529 135.817 21.7653C135.817 17.2777 132.273 13.5552 127.335 13.5552C122.397 13.5552 118.85 17.344 118.85 21.7653Z" fill="white"/>
<path d="M137.81 16.4529V15.6018H138.357C138.777 15.6018 138.969 15.7277 138.969 16.029C138.969 16.3304 138.777 16.4529 138.357 16.4529H137.81ZM138.943 17.9599H139.453L138.681 16.7742C139.075 16.7212 139.373 16.5224 139.373 16.0389C139.373 15.5057 139.062 15.2706 138.423 15.2706H137.406V17.9631H137.81V16.7907H138.241L138.943 17.9631V17.9599ZM140.228 16.6152C140.228 17.6784 139.363 18.5493 138.297 18.5493C137.231 18.5493 136.366 17.6817 136.366 16.6152C136.366 15.5488 137.231 14.6812 138.297 14.6812C139.363 14.6812 140.228 15.5488 140.228 16.6152ZM135.962 16.6152C135.962 17.9002 137.009 18.95 138.297 18.95C139.585 18.95 140.639 17.9002 140.639 16.6152C140.639 15.3302 139.585 14.2803 138.297 14.2803C137.009 14.2803 135.962 15.3269 135.962 16.6152Z" fill="white"/>
<path d="M43.0379 16.4863V7.53442H45.7437V22.4344C45.7437 25.4118 43.5115 29.9458 37.5501 29.9458C33.0261 29.9458 29.3599 26.273 29.3599 21.7489C29.3599 17.2249 32.6552 13.5752 37.0202 13.5752C39.5902 13.5719 41.6833 14.5324 42.9783 16.4003L43.0379 16.4897V16.4863ZM37.5501 16.2612C36.0333 16.2612 34.6688 16.8738 33.6752 17.8674C32.6817 18.8609 32.069 20.2321 32.069 21.7489C32.069 23.2658 32.6817 24.6401 33.6752 25.6304C34.6688 26.6206 36.0366 27.2367 37.5501 27.2367C40.6898 27.2367 43.0379 25.4119 43.0379 21.7887C43.0213 18.6093 40.4911 16.2645 37.5501 16.2645" fill="white"/>
<path d="M33.1022 41.2294H31.5158C31.2839 41.2294 31.1216 41.1798 31.0223 41.0638C30.9262 40.9579 30.8799 40.7824 30.8799 40.5439V36.3842C30.8799 36.1391 30.9262 35.9637 31.0256 35.8577C31.125 35.7517 31.2905 35.6953 31.5158 35.6953H33.1982C33.4499 35.6953 33.6619 35.7118 33.8473 35.745C34.0229 35.7814 34.1851 35.8443 34.3342 35.9371C34.4534 36.0132 34.566 36.1093 34.662 36.2351C34.7548 36.351 34.8276 36.4836 34.874 36.6294C34.927 36.7718 34.9469 36.9241 34.9469 37.0864C34.9469 37.6394 34.6885 38.0468 34.1719 38.3018C34.8508 38.5336 35.1953 38.9808 35.1953 39.6531C35.1953 39.9644 35.1191 40.2425 34.9667 40.4909C34.821 40.7393 34.6157 40.9214 34.3706 41.044C34.2083 41.1135 34.0295 41.1598 33.8208 41.1897C33.6155 41.2195 33.377 41.2294 33.1022 41.2294ZM31.9331 36.5399V37.9672H32.8935C33.1551 37.9672 33.3605 37.9473 33.5029 37.891C33.6453 37.8347 33.7546 37.7355 33.8275 37.5898C33.8871 37.4838 33.9169 37.3645 33.9169 37.2353C33.9169 36.9571 33.8241 36.7684 33.642 36.679C33.4532 36.5863 33.1684 36.5432 32.7875 36.5432H31.9331V36.5399ZM33.0227 38.7754H31.9331V40.3882H33.0591C33.7745 40.3882 34.1288 40.12 34.1288 39.5703C34.1288 39.2888 34.0394 39.0867 33.8506 38.9642C33.6652 38.8383 33.3936 38.7754 33.0227 38.7754Z" fill="white"/>
<path d="M40.5638 40.6034L40.3154 39.9111H38.2025L37.9607 40.6199C37.8646 40.8981 37.7785 41.0869 37.709 41.1796C37.6394 41.279 37.5301 41.3287 37.3712 41.3287C37.2387 41.3287 37.1228 41.2757 37.0201 41.1764C36.9174 41.0704 36.8711 40.9511 36.8711 40.8219C36.8711 40.749 36.881 40.6696 36.9075 40.5868C36.9307 40.504 36.9704 40.3948 37.0201 40.2524L38.3515 36.6556C38.3912 36.5496 38.4343 36.4272 38.4906 36.2847C38.5369 36.139 38.5999 36.0198 38.6562 35.927C38.7191 35.8277 38.7953 35.7548 38.8946 35.6951C38.9907 35.6322 39.1132 35.6057 39.2556 35.6057C39.398 35.6057 39.5239 35.6355 39.6233 35.6951C39.7193 35.7548 39.8021 35.8277 39.865 35.9204C39.9213 36.0164 39.9743 36.1157 40.0141 36.2217C40.0538 36.331 40.1068 36.4702 40.173 36.6523L41.5276 40.2224C41.6336 40.494 41.6865 40.6894 41.6865 40.8153C41.6865 40.9478 41.6402 41.0637 41.5342 41.1664C41.4348 41.2756 41.3189 41.3287 41.1732 41.3287C41.0937 41.3287 41.0242 41.312 40.9646 41.2789C40.9049 41.2491 40.8586 41.2094 40.8122 41.1531C40.7725 41.0968 40.7327 41.0141 40.6864 40.9015C40.64 40.7889 40.6036 40.6928 40.5671 40.6067L40.5638 40.6034ZM38.484 39.0667H40.0372L39.2523 36.7815L38.4873 39.0667H38.484Z" fill="white"/>
<path d="M45.2865 38.8647H44.9189V40.643C44.9189 40.8782 44.8725 41.0471 44.7765 41.1597C44.6771 41.2723 44.5513 41.3253 44.3956 41.3253C44.23 41.3253 44.0975 41.2691 44.0048 41.1499C43.9154 41.0339 43.8657 40.8617 43.8657 40.6398V36.3808C43.8657 36.139 43.922 35.9635 44.0214 35.8575C44.1207 35.7515 44.283 35.6919 44.5148 35.6919H46.2271C46.4622 35.6919 46.6576 35.705 46.8299 35.7249C46.9954 35.7481 47.1511 35.7913 47.2836 35.8575C47.4492 35.9303 47.5916 36.0363 47.7141 36.1688C47.8433 36.3046 47.9393 36.4635 48.0056 36.6457C48.0685 36.8245 48.1016 37.0165 48.1016 37.2152C48.1016 37.6292 47.989 37.9604 47.7737 38.2088C47.5518 38.4539 47.2206 38.6261 46.7768 38.7321C46.9623 38.8381 47.1445 38.9938 47.3134 39.1991C47.4823 39.4045 47.6313 39.6263 47.7671 39.8615C47.8996 40.0933 48.0055 40.3019 48.0751 40.4907C48.148 40.6795 48.1844 40.8086 48.1844 40.8782C48.1844 40.9477 48.1678 41.024 48.1182 41.0936C48.0784 41.1631 48.0188 41.2227 47.9393 41.2624C47.8698 41.3055 47.777 41.3253 47.6777 41.3253C47.5618 41.3253 47.4624 41.2956 47.3796 41.2393C47.3034 41.1764 47.2339 41.1034 47.1776 41.014C47.1147 40.9213 47.0385 40.7887 46.9391 40.6165L46.5185 39.8647C46.3629 39.5931 46.2304 39.3812 46.1112 39.2355C45.9919 39.0931 45.8694 39.0004 45.7435 38.9441C45.6276 38.8878 45.4687 38.8613 45.2799 38.8613L45.2865 38.8647ZM45.8926 36.5398H44.9222V38.0598H45.8661C46.1145 38.0598 46.3297 38.0399 46.502 37.9935C46.6709 37.9472 46.8033 37.8645 46.8961 37.7552C46.9888 37.6426 47.0319 37.4903 47.0319 37.2916C47.0319 37.1392 46.9954 37.0034 46.9259 36.8874C46.853 36.7682 46.7503 36.6822 46.6245 36.6225C46.4986 36.5662 46.2569 36.5398 45.8959 36.5398H45.8926Z" fill="white"/>
<path d="M54.838 39.484C54.838 39.6628 54.7983 39.8517 54.7155 40.0603C54.6327 40.2656 54.5068 40.4643 54.3313 40.663C54.1558 40.8584 53.9339 41.0207 53.659 41.1465C53.3874 41.2658 53.0728 41.3288 52.7118 41.3288C52.4369 41.3288 52.1885 41.299 51.96 41.246C51.7381 41.1897 51.5328 41.1035 51.3506 40.9876C51.1685 40.8683 50.9996 40.7193 50.8439 40.5239C50.7081 40.3517 50.5889 40.1564 50.4928 39.9411C50.3968 39.7259 50.3206 39.4973 50.2776 39.2522C50.2246 39.0071 50.208 38.7487 50.208 38.4771C50.208 38.03 50.2643 37.6327 50.3869 37.2784C50.5094 36.9273 50.6816 36.6258 50.9101 36.3708C51.1353 36.1224 51.4036 35.9338 51.7083 35.8013C52.0097 35.6688 52.3376 35.6025 52.6853 35.6025C53.1059 35.6025 53.4768 35.6919 53.808 35.8741C54.1359 36.0496 54.3876 36.2749 54.5631 36.5332C54.7353 36.7981 54.8248 37.0465 54.8248 37.2784C54.8248 37.4075 54.7817 37.5235 54.6956 37.6228C54.6128 37.7189 54.5068 37.7717 54.3876 37.7717C54.2518 37.7717 54.1525 37.7353 54.0862 37.6691C54.0167 37.5995 53.9405 37.4836 53.861 37.318C53.7219 37.0431 53.5596 36.8346 53.3775 36.6988C53.192 36.5663 52.9635 36.4966 52.6886 36.4966C52.2581 36.4966 51.9136 36.6689 51.6586 37.0199C51.4003 37.371 51.2711 37.8679 51.2711 38.5137C51.2711 38.9409 51.3307 39.3018 51.44 39.5866C51.5559 39.8748 51.7149 40.0868 51.9236 40.2259C52.1289 40.3683 52.374 40.4379 52.6489 40.4379C52.9502 40.4379 53.2086 40.3583 53.4172 40.1994C53.6292 40.0371 53.7815 39.8053 53.8941 39.494C53.9339 39.3516 53.9935 39.2322 54.0597 39.1395C54.1293 39.0468 54.2319 39.0071 54.3777 39.0071C54.5035 39.0071 54.6128 39.0502 54.6989 39.1429C54.7883 39.239 54.8347 39.3548 54.8347 39.4906L54.838 39.484Z" fill="white"/>
<path d="M60.6206 36.5631H58.2526V37.921H60.4318C60.5941 37.921 60.7133 37.9607 60.7928 38.0369C60.8723 38.1131 60.912 38.2156 60.912 38.3448C60.912 38.474 60.8723 38.57 60.7961 38.6495C60.72 38.7256 60.5974 38.7688 60.4351 38.7688H58.2559V40.342H60.7067C60.8723 40.342 60.9982 40.3883 61.0809 40.4678C61.1637 40.5506 61.2068 40.6565 61.2068 40.7923C61.2068 40.9281 61.1637 41.0307 61.0809 41.1135C60.9948 41.1963 60.8723 41.2328 60.7067 41.2328H57.8486C57.62 41.2328 57.4544 41.1832 57.3551 41.0739C57.2557 40.9679 57.2061 40.7889 57.2061 40.5472V36.3874C57.2061 36.2252 57.2259 36.0927 57.2723 35.9933C57.3154 35.8907 57.3882 35.8146 57.4809 35.7682C57.577 35.7219 57.6995 35.6953 57.8486 35.6953H60.6272C60.7961 35.6953 60.922 35.7351 60.9982 35.8179C61.0809 35.8941 61.1207 36.0001 61.1207 36.1326C61.1207 36.2651 61.0809 36.3677 60.9982 36.4439C60.9187 36.5201 60.7928 36.5631 60.6272 36.5631H60.6206Z" fill="white"/>
<path d="M64.4821 36.2813V40.3119H66.615C66.7839 40.3119 66.913 40.3549 67.0091 40.4443C67.0985 40.5304 67.1415 40.6398 67.1415 40.7789C67.1415 40.918 67.0952 41.0207 67.0091 41.1101C66.9197 41.1929 66.7872 41.2327 66.615 41.2327H64.0781C63.8462 41.2327 63.684 41.183 63.5846 41.0737C63.4819 40.9677 63.429 40.7888 63.429 40.547V36.2847C63.429 36.0595 63.4753 35.8905 63.5714 35.7779C63.6641 35.662 63.7932 35.6057 63.9489 35.6057C64.1046 35.6057 64.2337 35.6653 64.3331 35.7779C64.4324 35.8872 64.4788 36.0562 64.4788 36.2847L64.4821 36.2813Z" fill="white"/>
<path d="M71.1755 35.6025C71.712 35.6025 72.1757 35.7218 72.5599 35.9536C72.9474 36.1854 73.2421 36.5199 73.4375 36.9472C73.6362 37.3744 73.7356 37.8844 73.7356 38.4606C73.7356 38.8912 73.6826 39.2786 73.5733 39.6297C73.4673 39.9774 73.3051 40.2789 73.0832 40.5372C72.8646 40.7922 72.5963 40.9908 72.2817 41.1266C71.9638 41.2624 71.6027 41.332 71.1954 41.332C70.788 41.332 70.4237 41.2624 70.1058 41.12C69.7812 40.9842 69.5163 40.7856 69.2977 40.5306C69.0857 40.2755 68.9235 39.9709 68.8109 39.6132C68.7016 39.2555 68.6453 38.868 68.6453 38.454C68.6453 38.04 68.7016 37.6393 68.8208 37.2816C68.9334 36.9305 69.099 36.6259 69.3176 36.3775C69.5328 36.1291 69.7978 35.9402 70.1091 35.8078C70.4204 35.6753 70.7748 35.6058 71.1722 35.6058L71.1755 35.6025ZM72.6692 38.4508C72.6692 38.0467 72.6129 37.6956 72.487 37.3975C72.3612 37.0995 72.1856 36.8743 71.9604 36.7219C71.7286 36.5696 71.4703 36.4934 71.1755 36.4934C70.9669 36.4934 70.7715 36.5331 70.5893 36.6192C70.4105 36.7053 70.2581 36.8278 70.129 36.9868C69.9998 37.1491 69.9005 37.3545 69.8243 37.6062C69.7481 37.8579 69.7117 38.1394 69.7117 38.4474C69.7117 38.7554 69.7481 39.0468 69.8243 39.2985C69.9005 39.5535 70.0064 39.7656 70.1422 39.9345C70.278 40.1001 70.437 40.2258 70.6092 40.3119C70.7847 40.3947 70.9768 40.4345 71.1921 40.4345C71.4604 40.4345 71.7021 40.3617 71.9306 40.2193C72.1558 40.0735 72.3347 39.855 72.4672 39.5569C72.5996 39.2588 72.6659 38.8879 72.6659 38.4474L72.6692 38.4508Z" fill="white"/>
<path d="M77.4216 36.2715L79.4452 39.537V36.245C79.4452 36.0298 79.4849 35.8741 79.571 35.7615C79.6571 35.6555 79.773 35.6025 79.9221 35.6025C80.0711 35.6025 80.1937 35.6555 80.2764 35.7615C80.3659 35.8741 80.4089 36.0331 80.4089 36.245V40.6001C80.4089 41.0869 80.2201 41.3288 79.8393 41.3288C79.7432 41.3288 79.6604 41.3121 79.5843 41.2856C79.5081 41.2558 79.4418 41.2128 79.3723 41.1465C79.3061 41.0803 79.2431 41.0109 79.1868 40.9281C79.1305 40.8419 79.0742 40.7557 79.0146 40.6696L77.0407 37.444V40.6863C77.0407 40.8983 76.9944 41.0572 76.9017 41.1632C76.8089 41.2725 76.693 41.3288 76.5473 41.3288C76.4016 41.3288 76.279 41.2758 76.1929 41.1632C76.1002 41.0539 76.0571 40.8916 76.0571 40.6863V36.4172C76.0571 36.2384 76.0737 36.0926 76.1101 35.9932C76.1598 35.8806 76.2293 35.788 76.3353 35.7151C76.4413 35.6455 76.5539 35.6058 76.6698 35.6058C76.7692 35.6058 76.8453 35.6256 76.9149 35.6554C76.9811 35.6918 77.0374 35.7317 77.0871 35.788C77.1401 35.8443 77.1964 35.9138 77.2428 36.0033C77.2958 36.0927 77.3521 36.1821 77.4084 36.2782L77.4216 36.2715Z" fill="white"/>
<path d="M86.2049 40.6034L85.9565 39.9111H83.8469L83.5985 40.6199C83.5024 40.8981 83.4196 41.0869 83.3501 41.1796C83.2839 41.279 83.1713 41.3287 83.0156 41.3287C82.8831 41.3287 82.7639 41.2757 82.6645 41.1764C82.5619 41.0704 82.5122 40.9511 82.5122 40.8219C82.5122 40.749 82.5254 40.6696 82.5453 40.5868C82.5718 40.504 82.6116 40.3948 82.6645 40.2524L83.9926 36.6556C84.029 36.5496 84.0754 36.4272 84.1284 36.2847C84.1814 36.139 84.241 36.0198 84.2973 35.927C84.3602 35.8277 84.4397 35.7548 84.5358 35.6951C84.6351 35.6322 84.7543 35.6057 84.9001 35.6057C85.0458 35.6057 85.1683 35.6355 85.2677 35.6951C85.3637 35.7548 85.4432 35.8277 85.5061 35.9204C85.5657 36.0164 85.6154 36.1157 85.6585 36.2217C85.6982 36.331 85.7512 36.4702 85.8141 36.6523L87.172 40.2224C87.278 40.494 87.331 40.6894 87.331 40.8153C87.331 40.9478 87.278 41.0637 87.1786 41.1664C87.0793 41.2756 86.9567 41.3287 86.8176 41.3287C86.7348 41.3287 86.662 41.312 86.6057 41.2789C86.5494 41.2491 86.4997 41.2094 86.4566 41.1531C86.4202 41.0968 86.3738 41.0141 86.3275 40.9015C86.2844 40.7889 86.2414 40.6928 86.2082 40.6067L86.2049 40.6034ZM84.1251 39.0667H85.6717L84.8934 36.7815L84.1251 39.0667Z" fill="white"/>
</svg>
