<svg width="34" height="34" viewBox="0 0 34 34" fill="none" xmlns="http://www.w3.org/2000/svg">
<path d="M0 0V33.6784H33.6817V0H0ZM13.7144 17.076C13.7144 18.3908 13.5985 19.3876 13.3634 20.0732C13.1282 20.7588 12.6646 21.3417 11.9558 21.8153C11.2504 22.2922 10.3496 22.5306 9.25003 22.5306C8.09088 22.5306 7.18673 22.375 6.54753 22.0603C5.91166 21.7457 5.4182 21.2853 5.06714 20.6825C4.7227 20.0765 4.51406 19.3281 4.45445 18.4372L7.85575 17.9768C7.85906 18.4835 7.90543 18.8578 7.98823 19.0995C8.07103 19.3479 8.21341 19.5467 8.41543 19.699C8.55122 19.7984 8.74662 19.8481 8.99501 19.8481C9.39575 19.8481 9.6872 19.699 9.87267 19.4042C10.0581 19.1094 10.1509 18.6094 10.1509 17.9106V10.8166H13.7211V17.076H13.7144ZM24.0939 22.3385L21.6629 17.6092L19.8182 19.5366V22.3419H16.258V10.8233H19.8182V15.1749L23.554 10.8233H28.2933L24.0806 15.1683L28.4788 22.3419H24.0905L24.0939 22.3385Z" fill="white"/>
</svg>
