<svg width="119" height="27" viewBox="0 0 119 27" fill="none" xmlns="http://www.w3.org/2000/svg">
<path d="M50.7081 0.95378V13.8966C50.7081 18.3511 48.6911 21.2125 45.0845 21.2125C41.4779 21.2125 39.2523 18.3511 39.2523 13.7907V0.957176H33.5227V13.9C33.5227 21.2159 37.2353 26.6274 44.9785 26.6274C52.8276 26.6274 56.5436 21.1131 56.5436 13.7939V0.96041H50.7081V0.95378ZM21.3218 13.4727C21.3218 8.9123 18.0364 5.1997 13.476 5.1997C8.91554 5.1997 5.83552 8.80622 5.83552 13.3667C5.83552 17.9271 9.01822 21.6431 13.5787 21.6431C14.7478 21.6431 15.8042 21.3251 16.8673 20.9012L12.6249 17.2913L16.0162 13.3667L20.474 17.1886C21.0039 16.0162 21.3218 14.7444 21.3218 13.476V13.4727ZM24.8258 20.9012L27.154 23.0207L23.7627 26.9453L21.0039 24.6105C18.775 25.9916 16.1255 26.7335 13.4727 26.7335C5.72951 26.7335 0 20.9013 0 13.4727C0 6.04422 5.72954 0.105922 13.5787 0.105922C21.4278 0.105922 27.154 6.04751 27.154 13.3634C27.154 16.0129 26.4122 18.669 24.8258 20.8979V20.9012ZM83.9096 13.4727C83.9096 8.9123 80.7269 5.1997 76.0571 5.1997C71.3874 5.1997 68.4166 8.80622 68.4166 13.3667C68.4166 17.9271 71.6026 21.6431 76.1631 21.6431C80.7235 21.6431 83.9062 17.9271 83.9062 13.476L83.9096 13.4727ZM89.7451 13.3667C89.7451 20.5832 84.0156 26.6274 76.0604 26.6274C68.1053 26.6274 62.5944 20.6892 62.5944 13.3667C62.5944 6.04412 68.3206 0.109318 76.1697 0.109318C84.0189 0.109318 89.7484 6.05074 89.7484 13.3667H89.7451ZM118.813 21.8551C116.263 24.6073 113.292 26.6242 108.311 26.6242C100.78 26.6242 95.1533 20.686 95.1533 13.3634C95.1533 6.04088 100.78 0 108.417 0C113.296 0 116.263 1.69895 118.598 4.34845L114.995 8.27305C113.193 6.3621 111.388 5.09038 108.417 5.09038C104.172 5.09038 101.095 8.80619 101.095 13.2573C101.095 17.7085 104.278 21.5338 108.735 21.5338C111.491 21.5338 113.508 20.2587 115.313 18.3477L118.813 21.8517" fill="white"/>
</svg>
