<svg width="180" height="23" viewBox="0 0 180 23" fill="none" xmlns="http://www.w3.org/2000/svg">
<path d="M176.57 1.57613C176.57 0.638869 177.295 -0.000244141 178.15 -0.000244141C179.004 -0.000244141 179.73 0.638869 179.73 1.57613C179.73 2.51339 179.001 3.1559 178.15 3.1559C177.299 3.1559 176.57 2.53988 176.57 1.57613ZM179.471 1.57613C179.471 0.807775 178.895 0.211761 178.17 0.211761C177.444 0.211761 176.845 0.784592 176.845 1.57613C176.845 2.36767 177.425 2.92077 178.17 2.92077C178.915 2.92077 179.471 2.36435 179.471 1.57613ZM177.57 0.72164H178.17C178.514 0.72164 178.829 0.84753 178.829 1.2582C178.829 1.47016 178.68 1.66237 178.488 1.70873L178.912 2.41073H178.594L178.253 1.79153H177.845V2.41073H177.567V0.725036L177.57 0.72164ZM178.107 1.55624C178.362 1.55624 178.554 1.47016 178.554 1.2582C178.554 1.06611 178.448 0.937041 178.15 0.937041H177.848V1.55624H178.107Z" fill="white"/>
<path d="M44.5424 10.0945H40.2502C40.2105 10.0945 40.1641 10.0714 40.1244 10.0316C40.1045 9.98856 40.0846 9.94546 40.1045 9.90241L41.8995 5.03389C41.9393 4.93123 42.0287 4.86507 42.1314 4.86507H48.3875C48.6226 4.86507 48.8147 4.71608 48.8975 4.50412L49.858 1.87775C49.9043 1.79496 49.8811 1.68564 49.8149 1.60284C49.752 1.51673 49.6692 1.47363 49.5599 1.47363H39.5945C39.3593 1.47363 39.1672 1.62278 39.0811 1.83474L31.7818 21.6827C31.7387 21.7688 31.7619 21.8748 31.8248 21.9576C31.8877 22.0437 31.9738 22.09 32.0831 22.09H35.3255C35.4977 22.09 35.6666 21.9808 35.7295 21.8119L38.74 13.658C38.7797 13.5487 38.8692 13.4892 38.9752 13.4892H43.3501C43.5886 13.4892 43.7774 13.3401 43.8635 13.1249L44.8239 10.4985C44.867 10.4157 44.8471 10.3098 44.7809 10.2237C44.761 10.1376 44.6517 10.0945 44.5457 10.0945H44.5424Z" fill="white"/>
<path d="M63.536 1.47343H53.5706C53.3355 1.47343 53.1434 1.62257 53.0606 1.83453L45.7579 21.6825C45.7182 21.7686 45.7347 21.8746 45.801 21.9574C45.8606 22.0435 45.95 22.0898 46.056 22.0898H49.3016C49.4705 22.0898 49.646 21.9806 49.709 21.8117L52.6963 13.6578C52.7393 13.5485 52.8221 13.489 52.9281 13.489H57.3892C57.5581 13.489 57.7303 13.3831 57.7932 13.2108L58.7769 10.5216C58.8166 10.4388 58.8034 10.3328 58.7371 10.2467C58.6709 10.1572 58.5848 10.1174 58.4788 10.1174H54.1932C54.1469 10.1174 54.1038 10.0944 54.0608 10.0513C54.0409 10.0082 54.0177 9.96846 54.0409 9.92209L55.8359 5.05697C55.879 4.95099 55.9618 4.88475 56.0711 4.88475H62.4067C62.5789 4.88475 62.7478 4.77882 62.8107 4.60661L63.7911 1.91733C63.8374 1.83122 63.8142 1.72513 63.7513 1.63902C63.7513 1.53304 63.6453 1.4668 63.536 1.4668V1.47343Z" fill="white"/>
<path d="M18.8456 1.47363H7.83366C7.59521 1.47363 7.40643 1.62278 7.32032 1.83474L0.0242713 21.6827C-0.0220948 21.7688 0.00108987 21.8748 0.0673273 21.9576C0.130253 22.0437 0.216363 22.09 0.322343 22.09H3.56466C3.73688 22.09 3.90578 21.9808 3.97202 21.8119L6.12805 15.9631C6.16779 15.8306 6.27709 15.7048 6.40294 15.6419L9.13523 14.1482C9.17829 14.125 9.22134 14.125 9.26439 14.1482C9.30745 14.1714 9.33063 14.2111 9.3505 14.2509L10.4401 21.8285C10.46 21.9809 10.5891 22.09 10.7415 22.09H13.8546C13.9408 22.09 14.0269 22.0438 14.0898 21.9809C14.1527 21.9146 14.1759 21.8284 14.1527 21.7291L12.8313 12.2937C12.8114 12.1877 12.8743 12.0816 12.9604 12.0352L15.7358 10.4985C15.9279 10.3925 16.0537 10.2237 16.1398 10.0316L19.1271 1.87775C19.1735 1.79496 19.1503 1.68564 19.0874 1.60284C19.0642 1.53992 18.9582 1.47363 18.8523 1.47363H18.8456ZM14.1295 5.06041L13.083 7.89879C13.0432 8.00477 12.9538 8.11407 12.8511 8.15381L8.34369 10.6542C8.28076 10.6973 8.21784 10.6741 8.17479 10.6343C8.13504 10.6111 8.10855 10.5482 8.13505 10.4621L10.1189 5.04052C10.1619 4.93786 10.248 4.8717 10.3507 4.8717H13.9805C14.0236 4.8717 14.0666 4.89494 14.1063 4.938C14.1295 4.97774 14.1494 5.02076 14.1295 5.06381V5.06041Z" fill="white"/>
<path d="M35.3618 1.60284C35.2956 1.51673 35.2161 1.47363 35.1101 1.47363H31.9506C31.7187 1.47363 31.5233 1.62278 31.4372 1.83474L25.2904 18.5464C25.2474 18.6524 25.1612 18.7153 25.0553 18.7153H22.068C21.9388 18.7153 21.8328 18.6093 21.8096 18.4801L21.4255 15.7908C21.4056 15.7047 21.4255 15.622 21.4486 15.5557L26.4628 1.89764C26.5059 1.81485 26.486 1.70561 26.4231 1.6195C26.3568 1.53339 26.2707 1.49029 26.1647 1.49029H23.0052C22.7734 1.49029 22.578 1.64267 22.4952 1.85463L17.693 14.9795C17.6267 15.1716 17.6069 15.3637 17.6267 15.579L18.4812 21.7423C18.5044 21.9543 18.6965 22.1067 18.9084 22.1067H27.5955C27.8306 22.1067 28.0227 21.9543 28.1088 21.7423L35.4082 1.89425C35.4479 1.78827 35.428 1.67901 35.3651 1.59621L35.3618 1.60284Z" fill="white"/>
<path d="M75.3625 10.2467H72.097C72.0506 10.2467 72.0109 10.2202 71.9678 10.1804C71.9447 10.1341 71.9248 10.0911 71.9447 10.0514L73.5045 5.82534C73.5476 5.74255 73.5277 5.63662 73.4615 5.5472C73.3986 5.46109 73.3158 5.42139 73.2065 5.42139H70.0701C69.8383 5.42139 69.6429 5.57037 69.5568 5.78233L67.8081 10.5614C67.7651 10.6475 67.7883 10.7535 67.8512 10.8396C67.9174 10.9257 68.0002 10.9688 68.1062 10.9688H71.2657C71.3121 10.9688 71.3551 10.9885 71.3949 11.0283C71.4214 11.0713 71.4379 11.1144 71.4214 11.1575L68.9408 17.8839C68.8977 17.97 68.9408 18.0726 69.0236 18.1157C69.07 18.1355 69.0898 18.1355 69.1296 18.1355C69.1925 18.1355 69.2389 18.1157 69.2786 18.0726L75.6407 10.7534C75.7268 10.6673 75.7467 10.5382 75.6838 10.4123C75.601 10.3295 75.4917 10.2433 75.3658 10.2433L75.3625 10.2467Z" fill="white"/>
<path d="M139.434 18.7185H132.817C132.774 18.7185 132.731 18.6986 132.688 18.6522C132.668 18.6125 132.648 18.5695 132.668 18.5264L138.795 1.90076C138.835 1.81797 138.815 1.70873 138.748 1.62262C138.686 1.53651 138.599 1.49341 138.493 1.49341H135.334C135.102 1.49341 134.907 1.64579 134.824 1.85775L127.521 21.7091C127.478 21.7919 127.498 21.8979 127.561 21.984C127.627 22.0734 127.71 22.1132 127.819 22.1132H138.318C138.49 22.1132 138.659 22.0072 138.722 21.8317L139.706 19.149C139.745 19.0629 139.729 18.9569 139.666 18.8675C139.62 18.7648 139.533 18.7218 139.431 18.7218L139.434 18.7185Z" fill="white"/>
<path d="M154.225 10.0944H149.936C149.893 10.0944 149.853 10.0712 149.81 10.0315C149.787 9.98845 149.764 9.94535 149.787 9.90229L151.579 5.03378C151.625 4.93111 151.708 4.86495 151.814 4.86495H158.153C158.328 4.86495 158.497 4.75895 158.56 4.59004L159.54 1.90076C159.583 1.81797 159.564 1.70873 159.501 1.62262C159.434 1.53651 159.352 1.49341 159.242 1.49341H149.274C149.038 1.49341 148.846 1.64579 148.76 1.85775L141.461 21.7091C141.418 21.7919 141.444 21.8979 141.504 21.984C141.567 22.0734 141.653 22.1132 141.759 22.1132H151.814C151.986 22.1132 152.155 22.0072 152.221 21.8317L153.205 19.149C153.245 19.0629 153.225 18.9569 153.158 18.8675C153.096 18.7847 153.013 18.7417 152.907 18.7417H146.733C146.694 18.7417 146.654 18.7218 146.608 18.6788C146.588 18.6357 146.568 18.5926 146.588 18.5495L148.379 13.6844C148.422 13.5784 148.509 13.5122 148.618 13.5122H153.079C153.251 13.5122 153.42 13.403 153.486 13.2341L154.47 10.5448C154.51 10.4587 154.49 10.3527 154.427 10.2699C154.427 10.1374 154.318 10.0944 154.235 10.0944H154.225Z" fill="white"/>
<path d="M116.36 1.66233C116.317 1.55635 116.215 1.49011 116.085 1.49011H112.134C111.969 1.49011 111.816 1.55637 111.707 1.68222L105.458 9.34254C105.447 9.35799 105.433 9.35799 105.418 9.34254C105.418 9.34254 105.395 9.34252 105.395 9.32265L104.368 1.74836C104.345 1.59601 104.222 1.47021 104.067 1.47021H100.609C100.526 1.47021 100.44 1.51321 100.374 1.57614C100.308 1.64237 100.288 1.72857 100.308 1.83455L102.06 13.3632C102.083 13.4924 102.06 13.6413 102.017 13.7672L99.1154 21.6859C99.069 21.772 99.0889 21.878 99.1551 21.9608C99.218 22.0469 99.3107 22.0932 99.4134 22.0932H102.652C102.821 22.0932 102.997 21.984 103.063 21.8151L105.706 14.5985C105.746 14.4694 105.812 14.3633 105.901 14.2772L116.337 2.00338C116.403 1.8974 116.42 1.76831 116.357 1.66233H116.36Z" fill="white"/>
<path d="M98.4729 1.47345H86.7158C86.4773 1.47345 86.2885 1.62259 86.2057 1.83455L78.9031 21.6825C78.8633 21.7686 78.8865 21.8746 78.9461 21.9574C79.0123 22.0435 79.0985 22.0898 79.2044 22.0898H91.0278C91.1967 22.0898 91.3722 21.9806 91.4319 21.8117L93.2699 16.8174C93.3163 16.6882 93.2931 16.5392 93.2302 16.4299C93.1408 16.3239 93.0116 16.2378 92.8891 16.2378H89.9614C89.6832 16.2378 89.4481 16.41 89.3421 16.665L88.6598 18.5197C88.6201 18.629 88.5307 18.6919 88.4247 18.6919H84.2021C84.1557 18.6919 84.1159 18.6688 84.0729 18.629C84.053 18.586 84.0331 18.543 84.053 18.4966L89.0043 5.01059C89.044 4.90792 89.1268 4.84176 89.2394 4.84176H93.462C93.5051 4.84176 93.5515 4.85822 93.5945 4.9079C93.6177 4.94764 93.6376 4.99405 93.6177 5.03048L92.081 9.21333C92.0578 9.29944 92.081 9.38552 92.1439 9.42857C92.2068 9.49481 92.2896 9.49483 92.3559 9.45509L96.4725 7.18982C96.7309 7.03748 96.9461 6.80557 97.0289 6.53068L98.7345 1.85444C98.7776 1.76833 98.761 1.66225 98.6948 1.57614C98.6716 1.53639 98.5888 1.47021 98.4795 1.47021L98.4729 1.47345Z" fill="white"/>
<path d="M131.025 1.60284C130.959 1.51673 130.873 1.47363 130.77 1.47363H119.01C118.775 1.47363 118.583 1.62278 118.497 1.83474L111.2 21.6827C111.154 21.7688 111.181 21.8748 111.244 21.9576C111.306 22.0437 111.389 22.09 111.495 22.09H123.325C123.497 22.09 123.663 21.9808 123.729 21.8119L125.564 16.8176C125.604 16.6884 125.584 16.5394 125.518 16.4301C125.435 16.3241 125.309 16.238 125.177 16.238H122.252C121.977 16.238 121.742 16.4102 121.633 16.6652L120.951 18.5199C120.904 18.6292 120.825 18.6921 120.715 18.6921H116.486C116.446 18.6921 116.403 18.669 116.357 18.6292C116.337 18.5862 116.314 18.5431 116.337 18.4968L121.288 5.03066C121.331 4.92799 121.418 4.86167 121.524 4.86167H125.769C125.809 4.86167 125.859 4.88492 125.899 4.92797C125.922 4.96771 125.938 5.01073 125.922 5.05378L124.385 9.24003C124.362 9.32283 124.385 9.40891 124.448 9.45527C124.514 9.5182 124.594 9.51822 124.66 9.47516L128.78 7.21653C129.035 7.06087 129.25 6.82903 129.333 6.54752L131.039 1.87452C131.085 1.79172 131.062 1.6824 131.019 1.59961L131.025 1.60284Z" fill="white"/>
<path d="M174.351 1.60284C174.288 1.51673 174.202 1.47363 174.093 1.47363H163.038C162.803 1.47363 162.61 1.62278 162.524 1.83474L159.534 10.0316C159.428 10.333 159.557 10.6707 159.838 10.8429L165.724 14.0025C165.833 14.0687 165.899 14.1912 165.856 14.3204L164.296 18.5497C164.253 18.6556 164.17 18.7186 164.061 18.7186H160.541C160.497 18.7186 160.454 18.6987 160.415 18.6523C160.391 18.6126 160.368 18.5696 160.392 18.5265L161.074 16.6917C161.114 16.6089 161.094 16.4997 161.031 16.4136C160.964 16.3275 160.882 16.2844 160.779 16.2844H157.616C157.384 16.2844 157.189 16.4334 157.106 16.6453L155.245 21.7291C155.205 21.8152 155.228 21.9179 155.288 22.004C155.354 22.0901 155.44 22.1298 155.546 22.1298H166.687C166.853 22.1298 167.028 22.0238 167.091 21.8549L170.42 12.8037C170.509 12.5487 170.4 12.2704 170.165 12.1446L164.19 8.92211C164.088 8.85587 164.021 8.73326 164.061 8.60079L165.363 5.05718C165.406 4.9512 165.495 4.88496 165.604 4.88496H169.122C169.161 4.88496 169.204 4.91135 169.251 4.9511C169.271 4.99746 169.294 5.03394 169.271 5.08031L168.674 6.67997C168.635 6.76276 168.655 6.87208 168.718 6.95488C168.784 7.03767 168.867 7.08408 168.976 7.08408H172.281C172.407 7.08408 172.539 6.99793 172.579 6.87208L174.414 1.87452C174.434 1.79172 174.414 1.6824 174.351 1.59961V1.60284Z" fill="white"/>
</svg>
