<svg width="140" height="23" viewBox="0 0 140 23" fill="none" xmlns="http://www.w3.org/2000/svg">
<path d="M14.8537 2.44105L14.7875 2.39464C14.6882 2.32177 12.1976 0.652588 7.45834 0.652588C2.71905 0.652588 0.225206 2.32509 0.122538 2.39464L0.0563164 2.44105L0.046371 2.52716C0.046371 2.52716 0 3.75586 0 7.57776C0 9.21383 0.129184 11.6878 1.2221 14.2976C2.38126 17.0696 4.45446 19.5303 7.3656 21.6101L7.45502 21.6698L7.53451 21.6101C10.2668 19.6793 12.2738 17.2617 13.5058 14.4433C14.4232 12.3369 14.91 9.96562 14.91 7.58108C14.91 3.75918 14.8637 2.54703 14.8604 2.53047L14.8537 2.44768V2.44105ZM4.73268 1.18252C5.53746 1.05998 6.44491 0.98046 7.45834 0.98046C11.681 0.98046 14.1285 2.36813 14.5557 2.62977C14.5689 2.84835 14.5822 3.50741 14.5954 4.86528C13.8635 4.44467 11.4558 3.25907 7.45834 3.25907C6.44491 3.25907 5.54077 3.33196 4.73268 3.45118V1.18583V1.18252ZM4.30875 18.4904C3.08998 17.1524 2.15273 15.7051 1.50029 14.1584C0.427241 11.6016 0.304707 9.17408 0.304707 7.57113C0.304707 6.7266 0.304707 6.00791 0.304707 5.40184L0.321282 5.42836C0.321282 5.42836 1.70893 4.49773 4.30543 4.02745V18.4904H4.30875ZM4.30875 3.5174C2.17259 3.88833 0.831304 4.56398 0.314652 4.86204C0.327899 3.50418 0.341142 2.84511 0.351078 2.62653C0.65577 2.43775 2.007 1.66935 4.30875 1.25206V3.5174ZM7.45502 21.2624C6.49458 20.5735 5.6302 19.8416 4.86184 19.0699C5.62026 19.2985 6.49792 19.4144 7.48155 19.4144C8.55459 19.4144 9.37591 19.2687 9.97535 19.0998C9.22025 19.8748 8.37904 20.6 7.45502 21.2624ZM13.2276 14.2909C12.5454 15.8608 11.6114 17.3047 10.4423 18.603C9.8727 18.8249 8.90565 19.0832 7.48155 19.0832C6.43168 19.0832 5.51097 18.9507 4.73268 18.6891V3.95128C5.53746 3.83205 6.44491 3.75253 7.45834 3.75253C12.0751 3.75253 14.559 5.41512 14.5888 5.43168L14.6021 5.40516C14.6021 6.01123 14.6053 6.72992 14.6053 7.57445C14.6053 9.91263 14.1285 12.2343 13.2309 14.2942L13.2276 14.2909Z" fill="white"/>
<path d="M12.2373 13.8372C12.2207 13.7677 12.234 13.7345 12.2638 13.6683C12.3002 13.5789 12.3267 13.4564 12.3499 13.3437C12.3896 13.1782 12.4128 13.0755 12.3797 12.9165C12.3366 12.7145 12.2671 12.5588 12.1015 12.4462C11.9193 12.3204 11.7604 12.2111 11.5418 12.1879C11.2603 12.1581 10.9457 12.4495 10.694 12.1879C10.5847 12.0753 10.5449 11.8832 10.4621 11.7408C10.3628 11.552 10.2833 11.4163 10.1111 11.2904C9.94547 11.1712 9.77989 11.0552 9.63086 10.9261C9.44208 10.7704 9.25661 10.5816 9.1705 10.3432C9.15725 10.2968 9.08106 10.012 9.15393 10.0219C9.22679 10.0319 9.22681 10.2637 9.22019 10.3167C9.35929 10.2141 9.19698 9.91929 9.15393 9.80338C9.22679 9.84312 9.39902 10.0318 9.50169 9.91925C9.39571 9.86957 9.29305 9.83651 9.22019 9.73384C9.31292 9.66429 9.32285 9.57818 9.37584 9.47551C9.46526 9.61461 9.60767 9.60464 9.75339 9.60795C9.61429 9.49866 9.45861 9.29006 9.56459 9.0781C9.60434 9.00524 9.68051 8.9257 9.73019 8.85615C9.77655 8.7866 9.81299 8.71378 9.86267 8.65085C9.91235 8.58462 9.9587 8.56473 9.96863 8.472C9.97857 8.38589 9.99184 8.28985 9.91567 8.22361C9.85937 8.17724 9.74346 8.18058 9.6706 8.1607C9.7269 8.1607 9.81631 8.1441 9.87262 8.11761C9.95872 8.07124 10.015 7.952 10.0216 7.84933C10.0216 7.71023 9.93222 7.63737 9.90904 7.52477C9.94878 7.73342 9.77986 8.01825 9.60102 7.78642C9.52816 7.69038 9.49838 7.52813 9.46195 7.4089C9.41558 7.2698 9.35263 7.15059 9.31289 7.00818C9.26983 6.86908 9.16057 6.58421 9.00491 6.54115C9.16057 6.5809 9.23012 6.56104 9.25661 6.38551C9.28311 6.22985 9.16719 6.07754 9.04796 6.00799C9.10095 6.08085 9.15392 6.11723 9.15061 6.20997C9.15061 6.25965 9.13406 6.33911 9.07776 6.35567C9.04464 6.36229 8.99496 6.34249 8.95522 6.34249C8.83268 6.33918 8.71346 6.31262 8.59092 6.2795C8.52469 6.26294 8.475 6.25635 8.41538 6.22323C8.28953 6.13712 8.0842 4.79912 8.04777 4.64677C8.04115 4.6269 8.00801 4.54408 7.9484 4.54077C7.88879 4.54077 7.86891 4.61364 7.8656 4.6302C7.85236 4.67656 8.11071 6.01791 8.10077 6.16364C8.10077 6.21994 8.09082 6.27292 8.08088 6.31928C8.0577 6.39215 7.98153 6.40541 7.91529 6.42197C7.78281 6.45509 7.62052 6.45179 7.48804 6.5114C7.37544 6.56439 7.26284 6.63388 7.15686 6.70343C7.06744 6.76305 6.92505 6.81938 6.81245 6.81938C6.71309 6.81938 6.58722 6.78293 6.4978 6.79949C6.36864 6.8293 6.41501 7.02137 6.46137 7.11079C6.50774 7.23001 6.6601 7.23008 6.76608 7.2632C6.76277 7.35593 6.69983 7.37245 6.63028 7.38238C6.56073 7.39563 6.50775 7.4122 6.59717 7.47512C6.71309 7.56455 6.86211 7.61757 7.00452 7.59107C7.14031 7.56789 7.25955 7.47514 7.3854 7.5745C7.46819 7.64736 7.82256 7.93215 7.91529 7.71357C7.87555 7.8626 7.83248 8.03149 7.78281 8.18714C7.74969 8.26994 7.70995 8.33623 7.6669 8.40909C7.62053 8.48858 7.5874 8.57135 7.52779 8.62765C7.42512 8.72369 7.31917 8.79659 7.22975 8.91582C7.1867 8.98206 7.18335 9.04826 7.15686 9.12774C7.1403 9.17411 7.12708 9.26686 7.10058 9.31323C7.01116 9.45233 6.76274 9.20061 6.69982 9.12774C6.60046 8.99858 6.50773 8.81976 6.3322 8.81976C6.28253 8.81976 6.20969 8.83302 6.15008 8.83302C6.06728 8.83302 6.06396 8.84627 6.01428 8.91914C5.94473 9.03174 5.90501 9.15427 5.78578 9.24369C5.66324 9.33311 5.50095 9.36954 5.40159 9.48545C5.35522 9.54175 5.34529 9.60463 5.36185 9.67749C5.38834 9.78347 5.36847 9.76692 5.31879 9.85966C5.29561 9.90933 5.27905 9.99216 5.27905 10.0518C5.27905 10.1511 5.31877 10.1677 5.37507 10.2406C5.42806 10.3134 5.37178 10.3564 5.39496 10.4227C5.42477 10.4988 5.49762 10.4459 5.54729 10.4558C5.56716 10.4558 5.58042 10.4558 5.59698 10.4658C5.58373 10.5287 5.55725 10.6015 5.57381 10.6644C5.58375 10.7273 5.61685 10.787 5.63672 10.8466C5.67315 10.9658 5.70627 11.1314 5.84205 11.085C5.92816 11.0585 6.08053 10.883 6.07391 10.7671C6.07391 10.7141 6.03086 10.628 5.99111 10.5916C5.93812 10.5386 5.89175 10.5485 5.905 10.4558C5.905 10.3896 5.95798 10.3465 5.97785 10.2869C6.00104 10.224 6.01098 10.1577 6.03085 10.0948C6.05073 10.0186 6.09376 9.9491 6.1335 9.87955C6.17324 9.81 6.20306 9.80333 6.26598 9.75697C6.33222 9.7106 6.43489 9.64437 6.51437 9.68412C6.58392 9.71724 6.63691 9.82988 6.67334 9.89281C6.75945 10.0418 6.83562 10.2206 7.00784 10.2537C6.99459 10.2504 7.08732 10.6777 7.08732 10.7108C7.11713 10.8499 7.18668 10.9791 7.25291 11.1049C7.31915 11.2308 7.41851 11.3202 7.49799 11.4262C7.64371 11.6216 7.85566 11.7507 8.02788 11.9196C8.10405 11.9958 8.16697 12.0521 8.2299 12.1184C8.28951 12.178 8.37565 12.2177 8.42201 12.2873C8.46507 12.3568 8.45512 12.4761 8.44518 12.5556C8.43524 12.6019 8.40546 12.6383 8.3889 12.6747C8.34916 12.7675 8.32928 12.8801 8.29948 12.9794C8.25973 13.0953 8.21666 13.2113 8.19347 13.3338C8.17692 13.4862 8.22331 13.6418 8.30611 13.7743C8.33923 13.8306 8.37564 13.8471 8.41538 13.8935C8.46175 13.9498 8.52138 14.0293 8.5545 14.0956C8.59093 14.175 8.63066 14.2545 8.66377 14.3207C8.70352 14.43 8.72999 14.5658 8.76974 14.6851C8.82273 14.844 8.87574 14.9136 8.836 15.0957C8.79626 15.2481 8.72007 15.3872 8.65383 15.5263C8.58097 15.672 8.43858 15.7912 8.34916 15.9204C8.25312 16.0462 8.09413 16.1025 7.95503 16.1522C7.87223 16.182 7.5841 16.2449 7.78612 16.3873C7.83249 16.4171 7.90867 16.4338 7.95834 16.4437C8.03783 16.4569 8.15043 16.4635 8.24316 16.4635C8.34252 16.4635 8.39221 16.3576 8.42533 16.2682C8.46507 16.1489 8.4717 16.1357 8.59092 16.1688C8.65385 16.1853 8.71015 16.2185 8.75652 16.1688C8.80288 16.1191 8.7863 16.0363 8.81942 15.9767C8.84923 15.9171 8.90222 15.9237 8.94528 15.8773C8.98502 15.8309 8.99829 15.7416 9.00822 15.6753C9.03141 15.5958 9.07112 15.5131 9.10424 15.4402C9.16385 15.3044 9.25993 15.2282 9.34604 15.1223C9.42552 15.0328 9.37913 14.9069 9.35926 14.8009C9.33276 14.6519 9.22018 14.5327 9.1705 14.3969C9.10426 14.2313 9.11089 14.1287 9.21356 13.9962C9.32616 13.8571 9.53147 14.0989 9.60433 14.1949C9.63083 14.2347 9.64078 14.2943 9.66065 14.3307C9.68715 14.377 9.73022 14.4201 9.76002 14.4698C9.81301 14.5559 9.87593 14.6519 9.91567 14.7546C9.94879 14.8208 9.96535 14.8871 9.99847 14.9567C10.0647 15.1123 10.1541 15.2547 10.2535 15.3805C10.3495 15.4964 10.3661 15.6555 10.4257 15.7913C10.482 15.9271 10.5714 16.0561 10.5582 16.2118C10.5482 16.3012 10.5284 16.4006 10.5317 16.49C10.535 16.5629 10.578 16.6192 10.5217 16.6921C10.4456 16.7815 10.2071 16.7086 10.3263 16.914C10.3893 17.0133 10.5317 17.063 10.6376 17.0597C10.7701 17.0497 10.8364 16.9173 10.8099 16.7848C10.8032 16.7285 10.7436 16.6623 10.7834 16.596C10.8165 16.543 10.8728 16.5629 10.8695 16.4668C10.8662 16.3675 10.8165 16.2947 10.79 16.2053C10.7536 16.0993 10.7436 15.98 10.7204 15.8707C10.6973 15.7515 10.631 15.6422 10.5714 15.5263C10.5151 15.4071 10.482 15.2646 10.429 15.1421C10.4058 15.0924 10.4058 15.0328 10.3992 14.9765C10.3992 14.9036 10.3826 14.8275 10.3826 14.7612C10.3826 14.6221 10.472 14.4831 10.5482 14.3804C10.6144 14.291 10.6906 14.2181 10.7701 14.1518C10.8231 14.1154 10.9589 13.9929 11.0185 13.9962C11.098 14.0127 11.0318 14.185 11.0251 14.2446C11.0086 14.3472 10.992 14.45 10.9755 14.5493C10.9225 14.96 10.9192 15.3938 11.098 15.7681C11.1311 15.8343 11.1642 15.9204 11.2139 15.9667C11.1179 15.8343 11.1013 15.7681 11.1179 15.6025C11.1311 15.4766 11.1742 15.3574 11.204 15.2348C11.1841 15.3408 11.2503 15.4567 11.3 15.5494C11.3331 15.6024 11.3663 15.6488 11.3994 15.6952C11.3696 15.6323 11.353 15.5627 11.353 15.4965C11.353 15.3011 11.4391 15.1388 11.5153 14.9698C11.5981 15.1421 11.714 15.3408 11.8763 15.4501C11.7869 15.3707 11.7571 15.2117 11.7273 15.0957C11.6941 14.9467 11.6445 14.7943 11.661 14.642C11.671 14.5393 11.6941 14.3804 11.7372 14.291C11.7571 14.344 11.7571 14.4036 11.7769 14.4566C11.8001 14.5294 11.8432 14.5956 11.8895 14.6552C11.9591 14.7612 12.085 14.8606 12.1976 14.9103C12.1247 14.7778 12.0319 14.6189 11.9988 14.4566C11.9558 14.2247 11.9757 14.0062 12.0651 13.7909C12.0684 13.9234 12.1678 13.9895 12.2406 14.0657C12.34 14.1651 12.4228 14.2645 12.5619 14.2844C12.4393 14.1717 12.2803 13.9929 12.2274 13.8273L12.2373 13.8372Z" fill="white"/>
<path d="M1.95068 2.58347V3.70616C1.95068 3.70616 1.9507 3.71942 1.96394 3.71942H2.14607C2.14607 3.71942 2.15933 3.71618 2.15933 3.70293V2.28544L2.1527 2.27881H1.96063L1.76855 2.48742V2.76233C1.76855 2.76233 1.77846 2.77558 1.78177 2.76896L1.95731 2.58679L1.95068 2.58347Z" fill="white"/>
<path d="M2.70599 2.34499V3.46436C2.70599 3.46436 2.70931 3.48094 2.71925 3.48094H2.89806C2.89806 3.48094 2.91132 3.48092 2.91132 3.46436V2.04364C2.91132 2.04364 2.91131 2.03369 2.90138 2.03369H2.71262L2.51392 2.24562V2.52053C2.51392 2.52053 2.52714 2.52716 2.53045 2.52716L2.70599 2.3483V2.34499Z" fill="white"/>
<path d="M24.0609 8.64426V4.19975H25.0909V7.19362H30.0189V3.11677L27.1144 0.000244141H21.8419L18.9937 3.11677V10.0021L22.2129 13.0888L25.0909 13.367V17.9341H24.0609V14.9401H18.8513V19.0501L21.8419 22.1335H27.343L30.3038 19.0501V12.0687L27.1144 8.95224L24.0609 8.64426Z" fill="white"/>
<path d="M32.5259 0.000244141V22.1368H37.5963V14.6056H40.3617L43.6074 11.5785V3.12008L40.3617 0.000244141H32.5259ZM38.5336 10.4029H37.5963V4.19975H38.5336V10.4029Z" fill="white"/>
<path d="M49.8768 12.5324H52.7814V8.33296H49.8768V4.19975H53.3543V0.000244141H44.8064V22.1335H53.5497V17.9341H49.8768V12.5324Z" fill="white"/>
<path d="M60.3887 12.5324H63.2965V8.33296H60.3887V4.19975H63.8662V0.000244141H55.3149V22.1335H64.0649V17.9341H60.3887V12.5324Z" fill="white"/>
<path d="M65.8269 0.000244141V22.1368H74.3517L77.3158 19.0501V3.12008L74.1794 0.000244141H65.8269ZM72.0996 17.9341H71.0464V4.19975H72.0996V17.9341Z" fill="white"/>
<path d="M85.8604 0.000244141L84.9199 15.6787H84.6317L83.5223 0.000244141H78.4551L81.1576 22.1335H88.5695L90.9342 0.000244141H85.8604Z" fill="white"/>
<path d="M93.4115 0.000244141L90.7322 22.1368H95.6602L95.9484 18.1195H97.9421L98.2534 22.1368H103.185L100.419 0.000244141H93.4115ZM96.2034 13.9234L96.7167 5.3125H97.0346L97.6573 13.9234H96.2034Z" fill="white"/>
<path d="M106.944 0.000244141L104.095 3.11677V19.0501L107.225 22.1335H112.726L115.492 19.0501V10.681H109.762V14.8772H110.418V17.9341H109.166V4.19975H110.418V8.48861H115.492V3.11677L112.554 0.000244141H106.944Z" fill="white"/>
<path d="M122.811 12.5324H125.715V8.33296H122.811V4.19975H126.285V0.000244141H117.74V22.1335H126.487V17.9341H122.811V12.5324Z" fill="white"/>
<path d="M134.664 0.000244141V9.44571H134.465L131.928 0.000244141H128.249V22.1335H133.015V13.208H133.18L135.489 22.1335H139.423V0.000244141H134.664Z" fill="white"/>
</svg>
