<svg width="133" height="29" viewBox="0 0 133 29" fill="none" xmlns="http://www.w3.org/2000/svg">
<path d="M116.979 15.5162C117.628 15.5162 118.164 14.9829 118.164 14.3239V11.0186C118.164 7.75311 115.422 5.11684 112.051 5.11353C108.682 5.11353 105.924 7.75311 105.924 11.0186V17.7814C105.924 21.0502 108.682 23.6799 112.051 23.6932C115.402 23.6799 118.164 21.1629 118.164 18.0298V17.7814C118.164 17.1224 117.628 16.5925 116.979 16.5925H115.783C115.124 16.5925 114.584 17.1224 114.584 17.7814V18.0298C114.584 19.242 113.398 20.3548 112.051 20.3548C110.61 20.3548 109.438 19.2022 109.438 17.7814V15.5162H116.979ZM109.461 10.9756C109.467 9.51507 110.643 8.28964 112.17 8.28632C113.667 8.28632 114.892 9.51175 114.892 10.9756V12.6878H109.461V10.9756Z" fill="white"/>
<path d="M9.515 13.4131L4.84195 11.2901C4.05704 10.9391 3.96431 10.6013 3.9345 9.99189C3.9345 9.43218 4.19614 9.06455 4.57369 8.81284C4.96449 8.56445 5.48115 8.4519 5.98455 8.4519C7.07747 8.46846 8.11739 8.78306 8.13064 10.4059C8.13064 10.9689 8.61086 11.4358 9.20368 11.4358H10.8497C11.4392 11.4358 11.9095 10.9689 11.9095 10.4059V10.1145C11.9095 8.58107 11.2604 7.28605 10.1774 6.39185C9.10764 5.49433 7.62062 4.9877 5.94813 4.9877C4.27563 4.9877 2.83828 5.48771 1.80497 6.39848C0.788229 7.31255 0.192094 8.63411 0.192094 10.2437C0.192094 11.9692 0.976995 13.4991 2.56007 14.2509L7.38878 16.5427C8.26312 16.9633 8.44196 17.4966 8.44527 17.99C8.44196 18.8776 7.83258 19.8745 6.17002 19.8779C4.70948 19.8745 3.78878 19.0299 3.78547 17.7085C3.78215 17.1455 3.29862 16.6785 2.70911 16.6785H1.06312C0.473605 16.6785 0.00331187 17.1455 0 17.7085C0.00331187 20.6892 2.70249 23.3519 6.17002 23.3519C9.63423 23.3519 12.2606 21.0105 12.2606 17.9669C12.2705 15.5824 11.3564 14.2509 9.5117 13.4163M21.7789 5.53073H18.6823V1.02995C18.6823 0.473552 18.2054 0 17.6225 0H15.8672C15.2777 0 14.8041 0.473552 14.8041 1.02995V18.573C14.8041 20.9443 16.8144 22.8088 19.2718 22.8121H21.7458C22.3121 22.8121 22.7757 22.3353 22.7791 21.7458V20.3514C22.7791 19.7618 22.3121 19.285 21.7458 19.285H20.315C19.5334 19.285 19.1426 19.0896 18.9439 18.8047C18.7253 18.5133 18.6823 18.0728 18.6823 17.5562V9.06123H21.7789C22.3353 9.06123 22.8122 8.5811 22.8122 7.9949V6.60062C22.8122 6.01442 22.3386 5.53744 21.7789 5.53412M28.6411 5.53412H26.8858C26.3062 5.53412 25.826 6.00768 25.826 6.56407V21.7854C25.826 22.3451 26.3062 22.8154 26.8858 22.8188H28.6411C29.2273 22.8188 29.6975 22.3451 29.6975 21.7854V6.56407C29.6975 6.00768 29.2273 5.53744 28.6411 5.53412ZM36.3511 5.53412H34.6091C34.0229 5.53412 33.5526 6.00768 33.5526 6.56407V23.4084C33.5526 23.925 33.5062 24.3621 33.2909 24.6535C33.0823 24.9351 32.7014 25.1371 31.9165 25.1371H31.4661C30.9097 25.1371 30.4295 25.614 30.4262 26.2036V27.5978C30.4262 28.1807 30.9097 28.6609 31.4661 28.6609H32.9631C35.4205 28.6609 37.4275 26.7929 37.4275 24.415V6.56084C37.4275 6.00444 36.9439 5.53404 36.3511 5.53073M48.6414 5.55725C48.509 5.53407 48.3931 5.51763 48.2738 5.51763H42.1138V5.53073H41.8852C41.3024 5.53073 40.8155 6.00444 40.8155 6.56084V21.7822C40.8155 22.3419 41.3024 22.8122 41.8852 22.8155H43.6273C44.2168 22.8155 44.6871 22.3419 44.6871 21.7822V9.07126H47.3134C48.095 9.07126 48.4891 9.26657 48.6878 9.55801C48.9031 9.84284 48.9494 10.2866 48.9494 10.8V21.7822C48.9494 22.3419 49.4197 22.8122 50.0059 22.8155H51.7645C52.3541 22.8155 52.821 22.3419 52.8243 21.7822V9.78991C52.8243 7.50141 50.9598 5.69312 48.6381 5.56064" fill="white"/>
<path d="M81.2069 5.57031C80.8757 5.57031 80.2531 5.75574 80.0544 6.53072L76.875 18.6689L73.3843 6.52409C73.1856 5.75243 72.5629 5.57031 72.2284 5.57031H70.907C70.2777 5.57031 69.8108 6.07037 69.8108 6.69632C69.8108 6.75262 69.8108 6.9017 69.8737 7.08055L75.0104 24.034C75.0998 24.3354 75.1959 24.7362 75.1926 25.0111C75.1926 25.1502 75.1926 25.2197 75.1131 25.2892C75.0469 25.3621 74.8018 25.4715 74.2354 25.4715H72.8279C72.1788 25.4715 71.639 25.9979 71.639 26.657V27.6738C71.639 28.3229 72.1788 28.8627 72.8279 28.8627H74.2752C75.8616 28.8627 77.7262 28.4686 78.4713 25.6337L83.5551 7.05742C83.608 6.89183 83.608 6.74931 83.608 6.69632C83.608 6.07037 83.1278 5.57031 82.5085 5.57031H81.2069Z" fill="white"/>
<path d="M62.7664 5.11353C59.4314 5.11684 56.709 7.75311 56.709 11.0186V17.7814C56.709 21.0403 59.4314 23.6798 62.7664 23.6964C66.171 23.6831 68.8536 21.0966 68.8569 17.7814V17.4768C68.8569 16.821 68.3237 16.2845 67.668 16.2845H66.479C65.8199 16.2845 65.2768 16.821 65.2768 17.4768V17.7814C65.2768 19.2353 64.1773 20.3548 62.7664 20.3548C61.3787 20.3548 60.2924 19.2353 60.2924 17.7814V11.0186C60.2924 9.56471 61.382 8.44529 62.7664 8.44529C64.1508 8.44529 65.2768 9.56471 65.2768 11.0186V11.171C65.2768 11.83 65.8199 12.3599 66.479 12.3599H67.668C68.3237 12.3599 68.8569 11.83 68.8569 11.171V11.0186C68.8569 7.70675 66.171 5.11684 62.7664 5.11353Z" fill="white"/>
<path d="M90.6391 5.11353C87.3007 5.11684 84.5784 7.75311 84.5784 11.0186V17.7814C84.5784 21.0403 87.3007 23.6798 90.6391 23.6964C94.0437 23.6831 96.723 21.0966 96.7296 17.7814V17.4768C96.7296 16.821 96.203 16.2845 95.5373 16.2845H94.3484C93.6827 16.2845 93.1594 16.821 93.1594 17.4768V17.7814C93.1528 19.2353 92.04 20.3548 90.6391 20.3548C89.2514 20.3548 88.1618 19.2353 88.1585 17.7814V11.0186C88.1585 9.56471 89.2514 8.44529 90.6391 8.44529C92.0268 8.44529 93.1528 9.56471 93.1561 11.0186V11.171C93.1594 11.83 93.6827 12.3599 94.3484 12.3599H95.5373C96.203 12.3599 96.7296 11.83 96.7296 11.171V11.0186C96.7263 7.70675 94.0437 5.11684 90.6391 5.11353Z" fill="white"/>
<path d="M126.056 5.11338H126.04C124.361 5.11338 122.94 5.62673 121.936 6.53419C120.916 7.44495 120.347 8.74323 120.347 10.2866C120.347 12.2207 121.314 13.7077 123.158 14.6217L127.649 16.8936C128.693 17.4368 128.779 17.7217 128.805 18.3311C128.789 19.3313 128.053 20.3512 126.189 20.3578C124.51 20.338 123.619 19.467 123.589 17.8739V17.7515C123.589 17.0958 123.049 16.5659 122.403 16.5659H121.3C120.635 16.5659 120.108 17.0958 120.108 17.7515V17.937C120.108 19.5963 120.754 21.0368 121.827 22.0602C122.917 23.0836 124.447 23.6896 126.189 23.6896H126.192C128.136 23.6896 129.633 23.0008 130.64 21.9675C131.643 20.9375 132.157 19.5729 132.157 18.2118C132.173 16.2809 131.315 14.8602 129.603 13.9992L124.765 11.5814C123.937 11.1475 123.688 10.8031 123.678 10.1242C123.685 9.49495 123.966 9.10749 124.41 8.8326C124.854 8.56103 125.463 8.44175 126.076 8.44175C127.835 8.47155 128.59 9.1406 128.623 10.6475V10.7667C128.623 11.4224 129.143 11.9624 129.809 11.9624H130.839C130.865 11.9624 130.868 11.9624 130.878 11.9624C131.2 11.9624 131.769 11.7371 131.958 10.9224C132.044 10.6277 132.041 10.3295 132.041 10.1176V10.0812C131.912 7.1568 129.418 5.10352 126.056 5.10352" fill="white"/>
<path d="M101.784 0.241699H100.628C99.9589 0.241699 99.429 0.774943 99.429 1.43401L99.4224 22.0371C99.429 22.6962 99.9589 23.2361 100.628 23.2361H101.784C102.453 23.2361 102.973 22.6962 102.973 22.0371V1.43401C102.973 0.774943 102.453 0.245011 101.784 0.241699Z" fill="white"/>
<path d="M81.207 6.25928H82.5086C82.7471 6.25928 82.9193 6.44137 82.9193 6.69639C82.9193 6.7295 82.9193 6.78259 82.8862 6.87864L77.8124 25.4549C77.1864 27.8427 75.7358 28.1739 74.2753 28.1739H72.828C72.5531 28.1739 72.3312 27.9487 72.3312 27.6771V26.6604C72.3312 26.3855 72.5564 26.1603 72.828 26.1603H74.2356C74.9012 26.1603 75.3384 26.0378 75.5934 25.7927C75.8815 25.5211 75.8815 25.1965 75.8815 25.0144C75.8815 24.7229 75.8153 24.3354 75.6762 23.8287L70.5329 6.86538C70.4997 6.78258 70.4998 6.7329 70.4998 6.69978C70.4998 6.44477 70.6753 6.26267 70.9071 6.26267H72.2285C72.3511 6.26267 72.6227 6.3056 72.7253 6.71628L76.2094 18.8675L76.9115 21.2819L77.5507 18.8478L80.7301 6.70965C80.8295 6.30229 81.1077 6.25928 81.2103 6.25928" fill="white"/>
<path d="M62.7665 5.80225C65.7935 5.80556 68.1615 8.10068 68.1681 11.0184V11.1708C68.1681 11.4423 67.9429 11.6708 67.668 11.6708H66.4791C66.2009 11.6708 65.979 11.439 65.979 11.1708V11.0184C65.9691 9.19029 64.5715 7.75298 62.7632 7.75298C60.988 7.75298 59.6004 9.19029 59.6004 11.0184V17.7813C59.6004 19.6127 60.9913 21.0468 62.7665 21.0501C64.5715 21.0501 65.9691 19.6127 65.979 17.7813V17.4766C65.979 17.2017 66.2009 16.9764 66.4791 16.9764H67.668C67.9429 16.9764 68.1681 17.2017 68.1681 17.4766V17.7813C68.1615 20.699 65.7935 22.9941 62.7665 22.9975C59.8057 22.9941 57.3979 20.6493 57.3979 17.7813V11.0184C57.3979 8.14705 59.8057 5.80556 62.7665 5.80225Z" fill="white"/>
<path d="M90.6393 5.80225C93.663 5.80556 96.0343 8.10068 96.0376 11.0184V11.1708C96.0376 11.4423 95.8124 11.6708 95.5375 11.6708H94.3486C94.0737 11.6708 93.8485 11.439 93.8485 11.1575V11.0184C93.8485 9.19029 92.4376 7.75298 90.6327 7.75298C88.8575 7.75298 87.4764 9.19029 87.4698 11.0184V17.7813C87.4764 19.6127 88.8608 21.0468 90.6492 21.0501C92.4376 21.0501 93.8452 19.6127 93.8485 17.7813V17.4766C93.8485 17.2017 94.0737 16.9764 94.3486 16.9764H95.5375C95.8124 16.9764 96.0376 17.2017 96.0376 17.4766V17.7813C96.0343 20.699 93.663 22.9941 90.6459 22.9975C87.6751 22.9941 85.2773 20.6493 85.2773 17.7813V11.0184C85.2773 8.14705 87.6752 5.80556 90.6393 5.80225Z" fill="white"/>
<path d="M126.043 5.80225C129.047 5.80225 131.239 7.57738 131.355 10.1573C131.355 10.3362 131.355 10.5547 131.282 10.7733C131.18 11.2502 130.912 11.2701 130.855 11.2701H129.812C129.537 11.2701 129.315 11.0482 129.315 10.7667L129.309 10.6376C129.272 8.73991 128.222 7.79273 126.08 7.75298C125.285 7.75298 124.579 7.92512 124.046 8.24637C123.36 8.67691 122.999 9.30956 122.996 10.1475C123.009 11.2238 123.559 11.7271 124.46 12.2007L129.292 14.6185C130.772 15.3637 131.475 16.5426 131.475 18.2151C131.475 19.4372 130.998 20.6295 130.146 21.4906C129.186 22.4776 127.822 22.9975 126.189 22.9975C124.672 22.9975 123.278 22.4908 122.307 21.5602C121.334 20.6428 120.804 19.3545 120.804 17.937V17.7515C120.804 17.4766 121.029 17.2547 121.3 17.2547H122.407C122.678 17.2547 122.903 17.4766 122.903 17.7515V17.8839C122.92 19.8678 124.129 21.0269 126.199 21.0501C128.606 21.0269 129.474 19.5762 129.501 18.3078C129.464 17.3242 129.113 16.8706 127.964 16.2678L123.463 13.9991C121.854 13.201 121.039 11.949 121.045 10.2831C121.045 8.96501 121.509 7.8489 122.403 7.04743C123.288 6.23271 124.556 5.80225 126.05 5.80225" fill="white"/>
<path d="M101.784 0.933838C102.058 0.933838 102.28 1.15913 102.28 1.43401V22.0372C102.28 22.312 102.058 22.5406 101.784 22.5406H100.628C100.353 22.5406 100.124 22.312 100.124 22.0372V1.43401C100.124 1.15913 100.353 0.933838 100.628 0.933838H101.784Z" fill="white"/>
<path d="M108.748 14.8237H116.978C117.253 14.8237 117.479 14.5985 117.479 14.3203V11.0184C117.475 8.14705 115.034 5.80556 112.05 5.80225C109.056 5.80556 106.612 8.14705 106.612 11.0184V17.7813C106.612 20.6493 109.056 22.9876 112.05 22.9942C115.034 22.9909 117.475 20.7619 117.479 18.0296V17.7813C117.479 17.5064 117.25 17.2812 116.978 17.2812H115.783C115.508 17.2812 115.286 17.5064 115.286 17.7813V18.0296C115.279 19.6359 113.756 21.0467 112.047 21.0533C110.232 21.0467 108.748 19.5795 108.745 17.7845V14.8237H108.748ZM108.748 13.3765V10.9986C108.748 9.12072 110.295 7.60064 112.17 7.59402C114.061 7.60064 115.604 9.12072 115.604 10.9986V13.3765H108.745H108.748Z" fill="white"/>
</svg>
