<svg width="122" height="30" viewBox="0 0 122 30" fill="none" xmlns="http://www.w3.org/2000/svg">
<path d="M3.12972 11.2042H0C0.175529 9.96561 0.341122 8.77993 0.516651 7.53467C1.41086 7.53467 2.27857 7.52151 3.14297 7.53807C3.50065 7.548 3.69605 7.50812 3.71923 7.06764C3.76891 6.31916 3.90801 5.58062 4.0173 4.83876C4.24251 3.33186 5.67324 1.99725 7.3921 1.68925C7.75309 1.62301 8.12402 1.60317 8.5645 1.55681C8.28961 3.58698 8.01804 5.53438 7.73984 7.53144H11.4458C11.3034 8.54156 11.1776 9.49523 11.0517 10.4491C11.0318 10.5484 10.9888 10.6511 10.9987 10.7505C11.0352 11.1612 10.8099 11.2142 10.4655 11.2109C9.55806 11.191 8.65392 11.2009 7.74316 11.2075C7.57756 11.2075 7.41197 11.2208 7.22981 11.2308C6.94168 13.2676 6.65686 15.2646 6.37204 17.2749C6.11372 19.1395 5.83221 21.0107 5.59044 22.8852C5.52089 23.4184 5.51427 23.9749 5.56063 24.5114C5.64343 25.442 6.36541 26.0679 7.44508 26.1242C8.77977 26.1904 9.94224 25.6672 11.0087 24.9055C11.1146 24.8326 11.1676 24.6537 11.1908 24.5146C11.9227 19.3183 12.6414 14.1253 13.37 8.93558C13.6217 7.16042 13.8569 5.39188 14.1384 3.62996C14.4232 1.85811 15.7082 0.586301 17.4767 0.265049C17.8543 0.198812 18.2418 0.178966 18.6955 0.125977C17.9868 5.13684 17.2979 10.0748 16.6057 15.036C17.5032 14.3737 18.318 13.7013 19.1956 13.1251C20.1594 12.4892 21.2324 12.1116 22.4214 12.1182C24.2297 12.1282 25.3491 13.188 25.3292 15.079C25.3193 16.3839 25.147 17.6889 24.9881 18.9871C24.7496 20.9312 24.4515 22.8654 24.1998 24.8028C24.1137 25.4586 24.4317 25.9852 24.9814 26.217C25.571 26.4654 26.5844 26.3296 26.9156 25.9421C26.9752 25.8758 26.9951 25.76 26.9984 25.6706C27.0712 24.2431 27.0547 22.8091 27.2368 21.4015C27.4355 19.8383 27.7071 18.2651 28.1343 16.7482C28.8663 14.1319 31.1316 12.3469 33.8539 12.1482C34.8707 12.0753 35.8974 12.1944 36.9141 12.2077C37.0996 12.2077 37.3148 12.1581 37.4738 12.0587C38.4144 11.446 39.4179 11.5287 40.2061 12.3467C40.3286 12.4759 40.3916 12.6979 40.4181 12.8867C40.5406 13.718 41.0175 14.1684 41.8554 14.1849C42.0608 14.1949 42.2628 14.1949 42.4681 14.1717C43.5345 14.0624 43.773 13.8372 43.9717 12.7906C43.9949 12.6747 44.028 12.5588 44.0611 12.4197H48.1115C47.9625 13.4729 47.8267 14.4963 47.6876 15.5163C47.2902 18.4506 46.863 21.3817 46.4987 24.3193C46.2668 26.1839 47.4293 26.3129 48.6381 25.9519C49.7377 25.6174 50.5623 24.8624 51.2578 23.9881C51.4698 23.7265 51.4565 23.2794 51.5095 22.9184C51.8672 20.3682 52.205 17.8213 52.566 15.2778C52.7713 13.8173 54.0994 12.5555 55.7288 12.2541C56.1461 12.1779 56.5734 12.1514 57.0801 12.0951C57.0006 12.7509 56.9377 13.3305 56.8483 13.9068C56.3283 17.6326 55.8116 21.3551 55.2884 25.081C55.1923 25.7367 55.5467 26.2799 56.2124 26.4521C56.9874 26.6541 57.6133 26.3031 58.1896 25.8526C58.2624 25.7963 58.2426 25.5778 58.2194 25.4453C57.8783 23.2131 59.7395 22.1864 61.1802 22.4779C61.8094 22.607 61.9916 22.9282 62.1307 23.5508C62.2599 24.1702 62.442 24.816 62.7765 25.3426C63.2865 26.1275 64.4192 26.3296 65.2041 25.9189C65.8599 25.5745 66.3202 24.5312 66.0089 23.7363C65.6247 22.7394 65.1147 21.7956 64.6212 20.8451C63.9953 19.6362 63.2932 18.4672 62.7003 17.2418C62.0512 15.8839 62.0247 14.4763 62.6738 13.0919C63.3031 11.7539 64.5517 11.0917 65.9261 11.403C65.1876 12.9861 65.8731 14.3042 66.7209 15.5858C66.7276 15.6024 66.7408 15.6157 66.7507 15.6323C67.7443 17.3942 68.814 19.1229 69.7215 20.9279C71.2748 24.0211 69.6255 27.1906 67.6383 28.5882C65.4624 30.1216 62.0413 30.1448 60.031 28.5882C59.6998 28.3298 59.4116 28.0119 59.0772 27.6907C58.5837 27.9854 58.0736 28.3167 57.5404 28.6048C56.4376 29.2043 55.2685 29.6248 53.9802 29.5586C52.3905 29.4791 51.5493 28.7869 51.1817 27.227C51.1386 27.0316 51.0889 26.8329 51.0326 26.5779C50.5723 26.9754 50.1649 27.3496 49.7311 27.6941C48.6746 28.5485 47.5452 29.2705 46.1907 29.5586C43.7233 30.0852 42.2164 28.9493 42.2065 26.4389C42.2032 25.3062 42.382 24.1668 42.5344 23.0342C42.8026 20.9775 43.1073 18.9243 43.3988 16.8676C43.412 16.7682 43.3988 16.6687 43.3988 16.5694C42.5807 16.8211 41.7859 17.0629 41.0672 17.2848C40.789 19.2885 40.5373 21.2789 40.216 23.2594C40.0008 24.5908 39.6464 25.8857 38.8151 27.0018C37.4473 28.8366 35.543 29.6117 33.3274 29.7276C32.5524 29.7673 31.7575 29.7043 30.9825 29.5884C29.8201 29.4095 28.8033 28.9128 28.1012 28.0253C27.2136 28.4194 26.3923 28.8234 25.5411 29.1513C24.5277 29.5421 23.4712 29.5454 22.4114 29.3434C20.6595 29.0122 19.6858 27.7007 19.9176 25.9487C20.262 23.4184 20.6462 20.8947 20.9873 18.3612C21.0668 17.7948 21.0801 17.2053 21.0337 16.6357C20.9873 16.0495 20.5733 15.6753 19.9971 15.7349C19.4009 15.7879 18.7949 15.9534 18.2318 16.162C17.8874 16.2846 17.6059 16.5695 17.3012 16.7848C16.4865 17.361 16.1089 18.1227 15.9897 19.1328C15.5989 22.3917 15.1154 25.644 14.6484 28.8962C14.6318 29.0221 14.4729 29.2241 14.3768 29.2274C13.1117 29.2473 11.8532 29.2407 10.545 29.2407C10.6013 28.7406 10.6477 28.2902 10.6907 27.8796C9.66404 28.3134 8.66054 28.7703 7.63055 29.1611C6.22632 29.691 4.78896 29.6745 3.36155 29.2373C1.99706 28.82 1.20552 27.8729 1.22871 26.4521C1.25189 25.0611 1.40092 23.6634 1.57976 22.2824C1.97719 19.1924 2.43754 16.1124 2.86808 13.0258C2.95088 12.4462 3.03367 11.8566 3.11647 11.2274M36.785 18.5201C36.7651 18.179 36.7651 17.8379 36.7187 17.5034C36.5796 16.5297 35.957 15.9204 35.0164 15.8177C33.6056 15.6621 32.5193 16.2913 32.0324 17.6823C31.7542 18.4937 31.5853 19.3548 31.4595 20.206C31.2906 21.4181 31.125 22.6401 31.1051 23.8589C31.0819 25.4453 32.155 26.2567 33.6983 25.9885C35.033 25.76 35.7185 24.8425 35.9802 23.6601C36.361 21.9711 36.8114 18.5267 36.7816 18.5201" fill="white"/>
<path d="M94.2591 12.3765C94.1399 13.2972 94.0273 14.1483 93.9014 15.0823C94.4545 14.6252 94.9347 14.188 95.4547 13.7939C96.6668 12.8765 97.9618 12.1479 99.5448 12.095C101.403 12.0254 102.588 13.0057 102.605 14.8703C102.615 16.3109 102.429 17.7516 102.261 19.189C102.045 20.9939 101.747 22.7956 101.509 24.5973C101.396 25.4319 101.734 26.0976 102.314 26.3129C103.022 26.5745 104.231 26.2764 104.632 25.7365C104.692 25.6471 104.731 25.5213 104.731 25.4087C104.718 22.3784 105.178 19.4043 105.92 16.4766C106.188 15.4134 106.659 14.4233 107.374 13.5754C108.772 11.9228 110.862 11.5154 112.786 12.5288C113.22 12.7574 113.63 13.0388 114.018 13.3401C114.389 13.6316 114.72 13.9827 115.144 14.3801C115.246 13.6681 115.359 13.0057 115.445 12.3532C115.866 9.36922 116.204 6.37205 116.72 3.40793C117.005 1.76524 118.191 0.758367 119.774 0.278145C120.221 0.139047 120.694 0.0993561 121.257 0C119.886 9.79651 118.528 19.4838 117.171 29.1975H113.09C113.186 28.4888 113.282 27.7998 113.385 27.0281C112.984 27.3262 112.65 27.5846 112.312 27.8263C111.289 28.5483 110.209 29.1478 108.951 29.373C107.291 29.6644 106.185 29.1478 105.172 27.5514C104.688 27.8561 104.221 28.1874 103.721 28.459C102.439 29.1511 101.108 29.6446 99.6045 29.3299C97.9883 28.9888 97.0146 27.5382 97.2497 25.9088C97.6538 23.1599 98.0346 20.4077 98.389 17.6588C98.6175 15.9035 97.7266 15.2379 96.0541 15.8837C95.0705 16.258 94.2359 16.9004 93.6663 17.7483C93.3682 18.1854 93.3781 18.8446 93.2954 19.4076C92.835 22.6599 92.3879 25.9121 91.9275 29.2007H87.8573C87.8804 28.9424 87.9102 28.6908 87.9334 28.4855C87.069 28.7869 86.2245 29.1412 85.3435 29.3764C84.5288 29.5916 83.6777 29.5353 82.8828 29.2041C81.9125 28.8001 81.3461 28.0516 81.1242 26.9753C80.6871 27.3064 80.2929 27.621 79.879 27.9158C78.8125 28.6709 77.6898 29.2836 76.3618 29.4823C74.5634 29.7472 73.2055 28.9259 72.6458 27.2038C72.2352 25.975 72.202 24.7198 72.3743 23.4646C72.6756 21.2424 73.0035 19.0201 73.4109 16.8144C73.5632 16.0129 73.9242 15.2247 74.2985 14.4862C75.9047 11.3465 79.0113 11.3829 81.1872 12.6215C81.7568 12.9461 82.2436 13.4097 82.8067 13.8369C82.8861 13.3832 82.959 12.9262 83.0418 12.4261H87.1021C86.92 13.7244 86.7445 15.0028 86.5689 16.2746C86.1649 19.1393 85.7675 22.0073 85.3734 24.8754C85.2906 25.5146 85.3866 26.1174 86.0125 26.4751C86.5093 26.7599 87.7347 26.6639 88.1222 26.2996C88.2381 26.187 88.2977 25.975 88.3209 25.7994C88.5494 24.2164 88.7647 22.6299 88.98 21.0469C89.3608 18.298 89.745 15.5493 90.1424 12.8037C90.1623 12.6547 90.3213 12.4096 90.4206 12.4063C91.6792 12.3831 92.9344 12.3898 94.2657 12.3898M76.4777 23.6732C76.4876 23.862 76.4909 24.0475 76.5108 24.2329C76.6598 25.5875 77.4613 26.2002 78.8092 25.8822C79.508 25.7166 80.1704 25.3723 80.846 25.1073C81.1838 24.9715 81.3229 24.7164 81.3693 24.3654C81.6773 22.0603 82.0019 19.752 82.3132 17.4436C82.4589 16.407 82.4457 16.407 81.5283 15.9235C81.4819 15.9003 81.4389 15.8671 81.3925 15.8506C79.7034 15.0259 77.8554 15.2777 77.3686 17.6291C76.9579 19.6261 76.4313 23.6699 76.4777 23.6799M108.888 23.5507C108.901 23.7726 108.894 23.9945 108.924 24.2164C109.086 25.4319 109.649 25.9751 110.881 25.836C111.623 25.7532 112.332 25.3921 113.054 25.1437C113.584 24.9649 113.759 24.5708 113.826 24.0243C114.084 21.9478 114.379 19.8745 114.687 17.8013C114.869 16.5958 114.856 16.5262 113.759 15.9798C113.68 15.94 113.604 15.9036 113.528 15.8705C111.726 15.112 110.272 15.7181 109.812 17.6092C109.345 19.5533 108.841 23.5408 108.888 23.5474" fill="white"/>
</svg>
