<svg width="152" height="25" viewBox="0 0 152 25" fill="none" xmlns="http://www.w3.org/2000/svg">
<path d="M105.218 11.6888L95.9081 20.4951H105.347L120.416 6.24414H107.821L93.6593 11.8975L92.4704 6.24414H81.4717L66.3894 20.4951H76.8218L86.774 11.0961L87.9596 17.329H91.914C91.9802 17.2925 101.538 13.252 105.221 11.6922" fill="white"/>
<path d="M147.888 9.19834L151.005 6.23755H123.602L108.523 20.4952H135.929L138.916 17.6271H120.787L123.695 14.8782H133.22L136.412 11.9439H126.801L129.703 9.20166L147.888 9.19834Z" fill="white"/>
<path d="M67.6315 6.23096L52.5459 20.4952H63.2068L78.2891 6.23096H67.6315Z" fill="white"/>
<path d="M61.9881 9.2017L65.1079 6.23096H38.4274L35.2911 9.2017H43.5178L31.5818 20.4952H42.1632L54.086 9.2017H61.9881Z" fill="white"/>
<path d="M4.06996 16.1632C4.20906 16.1632 4.34485 16.1632 4.45745 16.1632C6.65654 16.1632 8.86224 16.1632 11.0646 16.1698C11.3064 16.1698 11.4852 16.1036 11.6641 15.9347C14.2705 13.4607 16.8836 10.9901 19.5033 8.5294C19.6225 8.41679 19.8278 8.33728 19.9901 8.33397C21.4805 8.32072 22.9774 8.32734 24.4711 8.32734H24.8652C24.6168 8.5691 24.428 8.75791 24.2293 8.94006C21.3414 11.6757 18.4468 14.408 15.5588 17.1436C12.9623 19.601 10.3625 22.0583 7.76601 24.5157C7.35203 24.9065 6.96454 24.8072 6.7857 24.2673C5.89812 21.641 4.08652 16.2692 4.06665 16.1698L4.06996 16.1632Z" fill="white"/>
<path d="M31.499 0.961653C31.3301 0.448313 30.9725 0.110473 30.4293 0.0210524C30.1942 -0.0220019 29.9392 0.0111265 29.6974 0.0309978C26.5511 0.332378 23.3982 0.63707 20.2486 0.941762C17.0758 1.24645 13.9097 1.54121 10.7402 1.84921C7.53765 2.1539 4.3417 2.46523 1.14243 2.77324C0.191925 2.86266 -0.2055 3.4555 0.102504 4.36295C1.21529 7.68476 2.33471 11.0065 3.45081 14.3316C3.64621 14.9112 3.84492 15.4908 4.06019 16.1168C6.81567 13.5136 9.51153 10.9436 12.2339 8.3769C12.2206 8.36034 12.2041 8.33718 12.1941 8.32062H6.62689C6.62689 8.32062 6.61033 8.32062 6.60371 8.32062C6.71631 8.20139 6.77261 8.13847 6.83554 8.07886C7.39856 7.54896 7.9682 7.02235 8.52459 6.4792C8.70675 6.30036 8.8889 6.23081 9.14722 6.23081C15.0291 6.23412 21.1693 6.23414 27.0512 6.24739C27.0512 6.24739 30.161 3.34954 31.148 2.39903C31.5653 2.00161 31.6812 1.50811 31.5024 0.964968L31.499 0.961653Z" fill="white"/>
</svg>
