<svg width="119" height="40" viewBox="0 0 119 40" fill="none" xmlns="http://www.w3.org/2000/svg">
<path d="M0 9.93589L3.19596 11.4162L8.63405 24.6836H9.09772L16.0162 8.11436H9.30637L13.8072 10.8796L9.85282 20.7093L4.76579 7.81616L0 9.93589Z" fill="white"/>
<path d="M26.2135 22.0904C22.64 22.0904 21.0966 18.8945 21.0966 15.6223V15.0526H31.2972C31.1515 10.7108 29.2041 7.81616 25.6273 7.81616C21.6199 7.81616 18.679 11.721 18.679 16.808C18.679 21.8951 21.9047 25.0578 25.4219 25.0578C28.9391 25.0578 30.9163 22.0606 31.4992 18.8249C30.0155 20.9478 28.1244 22.0904 26.2069 22.0904M25.3623 8.75684C27.164 8.75684 28.3828 10.5054 28.3828 13.3702V13.9431H21.2026C21.6133 11.181 23.1235 8.75684 25.3623 8.75684Z" fill="white"/>
<path d="M40.1698 0.000244141L34.6721 2.08666L37.5468 3.90819V22.395L35.053 24.6835H42.667L40.1698 22.395V0.000244141Z" fill="white"/>
<path d="M53.1456 7.81622C48.8104 7.81622 45.7932 11.3865 45.7932 16.4669C45.7932 21.5473 48.5818 25.0546 52.9701 25.0546C57.3583 25.0546 60.2992 21.4512 60.2992 16.3973C60.2992 11.3434 57.5073 7.81299 53.1456 7.81299M53.3476 24.0743C50.3537 24.0743 48.8104 20.2357 48.8104 15.8276C48.8104 11.8169 50.0324 8.78666 52.7382 8.78666C55.7322 8.78666 57.3053 12.6252 57.3053 17.0366C57.3053 21.0439 56.0832 24.0743 53.3476 24.0743Z" fill="white"/>
<path d="M73.0368 7.81613C70.3045 7.81613 68.9069 9.93901 68.2114 11.3499V0.000244141L62.7468 2.08666L65.595 3.90819V25.0545L68.122 23.1998C69.3739 24.5478 70.6523 25.0545 72.1327 25.0545C76.6699 25.0545 78.8491 20.4411 78.8491 16.0297C78.8491 11.6183 76.7858 7.8129 73.0368 7.8129M71.8445 24.0079C69.6322 24.0079 68.2081 21.9214 68.2081 17.8809V12.4925C68.9632 11.3135 70.2449 10.5717 71.6061 10.5717C74.547 10.5717 76.0307 13.9398 76.0307 17.4107C76.0307 20.8815 74.5735 24.0079 71.8445 24.0079Z" fill="white"/>
<path d="M87.619 7.81616L82.1279 9.90274L85.0059 11.7209V22.395L82.5055 24.6836H90.1162L87.619 22.395V7.81616Z" fill="white"/>
<path d="M101.36 22.0904C98.5381 22.0904 96.2131 19.633 96.2131 15.5892C96.2131 12.2939 97.7565 8.88935 100.81 8.58466L104.268 12.8636L106.417 10.065C105.023 8.71704 103.075 7.80957 100.982 7.80957C96.3854 7.80957 93.8286 12.1481 93.8286 16.7317C93.8286 21.8486 97.0544 25.048 100.575 25.048C104.095 25.048 106.073 22.0507 106.649 18.8183C105.165 20.9412 103.307 22.0838 101.36 22.0838" fill="white"/>
<path d="M111.209 24.6836H118.82L116.323 22.395V7.81616L110.829 9.90274L113.71 11.7209V22.395L111.209 24.6836Z" fill="white"/>
<path d="M87.6188 0.000244141L83.2273 1.68254L87.6188 4.491V0.000244141Z" fill="white"/>
<path d="M116.323 0.000244141L111.921 1.68254L116.323 4.491V0.000244141Z" fill="white"/>
<path d="M38.2456 35.2717H40.3354V35.7253H38.706V37.0368H40.077V37.4906H38.706V39.0107H40.3851V39.4644H38.2456V35.2717Z" fill="white"/>
<path d="M41.8059 35.2717H42.2795L43.5943 37.9079L43.9851 38.7789H44.0017C43.9818 38.3517 43.942 37.8813 43.942 37.4442V35.2717H44.3825V39.4678H43.9056L42.5975 36.8282L42.2099 35.9604H42.1835C42.21 36.3844 42.2464 36.8348 42.2464 37.2687V39.4644H41.8059V35.2683V35.2717Z" fill="white"/>
<path d="M45.8198 37.3713C45.8198 36.0201 46.5219 35.1953 47.4791 35.1953C47.9792 35.1953 48.3136 35.4571 48.5223 35.7154L48.2706 36.0631C48.0885 35.8478 47.8566 35.669 47.4956 35.669C46.7637 35.669 46.2967 36.318 46.2967 37.3613C46.2967 38.4045 46.7306 39.0769 47.4989 39.0769C47.7573 39.0769 48.009 38.9875 48.1481 38.8285V37.7357H47.383V37.2951H48.572V39.057C48.3368 39.3385 47.9394 39.5405 47.4526 39.5405C46.4987 39.5405 45.8198 38.7325 45.8198 37.3713Z" fill="white"/>
<path d="M50.0854 35.2717H50.5491V39.0107H52.1288V39.4644H50.0854V35.2717Z" fill="white"/>
<path d="M54.1658 35.2717H54.6891L55.9111 39.4678H55.4276L54.795 37.1262C54.6659 36.656 54.55 36.1957 54.434 35.7155H54.4108C54.2982 36.199 54.1823 36.6593 54.0532 37.1262L53.4173 39.4678H52.947L54.1691 35.2717H54.1658ZM53.5862 37.7621H55.2554V38.1861H53.5862V37.7621Z" fill="white"/>
<path d="M57.0801 35.2717H57.557L58.8652 37.9079L59.256 38.7789H59.2792C59.256 38.3517 59.2195 37.8813 59.2195 37.4442V35.2717H59.6567V39.4678H59.1831L57.8716 36.8282L57.4808 35.9604H57.461C57.4841 36.3844 57.5172 36.8348 57.5172 37.2687V39.4644H57.0801V35.2683V35.2717Z" fill="white"/>
<path d="M61.3027 35.2717H62.2069C63.323 35.2717 63.9158 36.0201 63.9158 37.3547C63.9158 38.6894 63.3229 39.4678 62.2267 39.4678H61.3027V35.2717ZM62.1704 39.0273C63.0183 39.0273 63.4389 38.4146 63.4389 37.3581C63.4389 36.3017 63.0183 35.7155 62.1704 35.7155H61.7631V39.0306H62.1704V39.0273Z" fill="white"/>
<path d="M67.1085 35.2717H67.6583L68.3505 37.5105C68.4366 37.7986 68.5227 38.0934 68.6088 38.3849H68.632C68.7214 38.0934 68.7976 37.7986 68.8804 37.5105L69.5659 35.2717H70.1223V39.4678H69.6951V37.1594C69.6951 36.7951 69.7282 36.2917 69.7547 35.9174H69.7315L69.4434 36.8746L68.7645 39.0438H68.4565L67.7742 36.8746L67.4827 35.9174H67.4596C67.4861 36.2884 67.5192 36.7951 67.5192 37.1594V39.4678H67.1052V35.2717H67.1085Z" fill="white"/>
<path d="M72.5135 35.2717H73.0367L74.2588 39.4678H73.772L73.1394 37.1262C73.0102 36.656 72.891 36.1957 72.7784 35.7155H72.7552C72.6459 36.199 72.5267 36.6593 72.3976 37.1262L71.765 39.4678H71.2947L72.5135 35.2717ZM71.9339 37.7621H73.5998V38.1861H71.9339V37.7621Z" fill="white"/>
<path d="M75.4246 35.2717H76.332C77.4448 35.2717 78.0409 36.0201 78.0409 37.3547C78.0409 38.6894 77.4448 39.4678 76.3485 39.4678H75.4246V35.2717ZM76.2956 39.0273C77.1401 39.0273 77.5607 38.4146 77.5607 37.3581C77.5607 36.3017 77.1368 35.7155 76.2956 35.7155H75.8849V39.0306H76.2956V39.0273Z" fill="white"/>
<path d="M79.4751 35.2717H81.555V35.7253H79.9355V37.0368H81.3033V37.4906H79.9355V39.0107H81.6146V39.4644H79.4751V35.2717Z" fill="white"/>
</svg>
