<svg width="95" height="37" viewBox="0 0 95 37" fill="none" xmlns="http://www.w3.org/2000/svg">
<path d="M43.2366 16.2976H40.7063V18.9837H43.2366V16.2976Z" fill="white"/>
<path d="M43.2366 10.0249H40.7063V12.6346H43.2366V10.0249Z" fill="white"/>
<path fill-rule="evenodd" clip-rule="evenodd" d="M21.3284 15.7908H24.3322L22.8154 12.1411L21.3284 15.7908Z" fill="white"/>
<path fill-rule="evenodd" clip-rule="evenodd" d="M80.2633 4.50708H14.5027C8.97855 4.50708 4.49097 8.98488 4.49097 14.519C4.49097 20.0532 8.98186 24.5308 14.5027 24.5308H80.2633C85.7808 24.5308 90.2751 20.0532 90.2751 14.519C90.2751 8.98488 85.7808 4.50708 80.2633 4.50708ZM32.7214 21.6659H26.7534L25.5247 18.7051H20.1296L18.934 21.6659H14.2113V18.9834H15.4996L19.2255 10.0281H17.861V7.23937H26.5381L31.3701 19.0164H32.7214V21.6693V21.6659ZM48.9727 13.3068C48.9727 14.0288 48.3865 14.6878 47.6877 14.6878C48.3898 14.6878 48.9727 15.3304 48.9727 16.0524V20.361C48.9727 21.083 48.3865 21.6659 47.6877 21.6659H33.6719V18.9834H35.0993V10.0281H33.6719V7.26929H47.6877C48.3898 7.26929 48.9727 7.83567 48.9727 8.55765V13.3101V13.3068ZM66.3137 10.0247H64.9459V19.9471C64.9459 20.9406 64.4557 21.6627 63.2171 21.6627H53.1755C51.9435 21.6627 51.4434 20.9406 51.4434 19.9471V10.0247H50.0921V7.23614H56.9013V18.4435C56.9013 18.8144 57.1331 18.9834 57.3451 18.9834H59.0474C59.2627 18.9834 59.4945 18.8144 59.4945 18.4435V7.23614H66.317V10.0247H66.3137ZM80.7435 20.2055C80.7435 20.8778 80.1871 21.815 79.0081 21.815H68.9665C67.9862 21.815 67.3105 21.1095 67.3105 20.1756V17.6752H72.5897V19.0098H75.0835V15.8337H67.2807V8.82577C67.2807 8.15677 67.8338 7.23614 69.0128 7.23614H79.0511C80.0314 7.23614 80.7104 7.92506 80.7104 8.86232V11.3595H75.0967V10.0247H72.5996V13.2007H80.7402V20.2055H80.7435Z" fill="white"/>
<path fill-rule="evenodd" clip-rule="evenodd" d="M80.2632 0H14.5027C6.48464 0 0 6.50131 0 14.5194C0 22.5374 6.48464 29.0385 14.5027 29.0385H80.2632C88.2845 29.0385 94.7791 22.5374 94.7791 14.5194C94.7791 6.50131 88.2812 0 80.2632 0ZM80.2632 26.664H14.5027C7.80276 26.664 2.37129 21.2258 2.37129 14.5226C2.37129 7.81936 7.80276 2.37798 14.5027 2.37798H80.2632C86.9664 2.37798 92.4045 7.81936 92.4045 14.5226C92.4045 21.2258 86.9664 26.664 80.2632 26.664Z" fill="white"/>
<path fill-rule="evenodd" clip-rule="evenodd" d="M17.3078 31.8931C17.278 31.1877 16.6951 30.9558 16.1586 30.9558C15.7744 30.9558 15.0988 31.0618 15.0988 31.7705C15.0988 32.1713 15.3737 32.2938 15.6519 32.3567L16.9832 32.6614C17.5827 32.7972 18.0265 33.1681 18.0265 33.9033C18.0265 35.0062 17.013 35.3141 16.2182 35.3141C15.3604 35.3141 15.0259 35.0558 14.8074 34.8704C14.4232 34.5028 14.3337 34.1186 14.3337 33.6881H14.9332C14.9332 34.5326 15.6221 34.7777 16.2016 34.7777C16.662 34.7777 17.4337 34.6551 17.4337 33.9928C17.4337 33.5059 17.2018 33.3502 16.4335 33.168L15.483 32.9528C15.175 32.87 14.5026 32.6614 14.5026 31.8467C14.5026 31.1247 14.963 30.4225 16.0957 30.4225C17.7218 30.4225 17.8741 31.3896 17.9039 31.8963H17.3045L17.3078 31.8931ZM19.2121 33.2245C19.2121 32.7045 19.6228 32.211 20.1461 32.211C20.8383 32.211 21.0502 32.7045 21.08 33.2245H19.2121ZM21.0635 34.1318C21.0337 34.3736 20.7257 34.791 20.1891 34.791C19.5301 34.791 19.2121 34.3736 19.2121 33.6714H21.6795C21.6795 32.4726 21.2026 31.7076 20.2189 31.7076C19.0995 31.7076 18.5928 32.5355 18.5928 33.5754C18.5928 34.559 19.1625 35.2811 20.113 35.2811C20.6462 35.2811 20.8614 35.1553 21.0304 35.0526C21.4476 34.7612 21.6132 34.2809 21.6265 34.1318H21.0601H21.0635ZM24.4648 32.9329C24.3886 32.4891 24.1468 32.211 23.6699 32.211C22.9645 32.211 22.7327 32.8865 22.7327 33.486C22.7327 34.0854 22.8717 34.791 23.6533 34.791C24.0375 34.791 24.372 34.4994 24.4648 33.9894H25.0178C24.9549 34.5292 24.6337 35.2811 23.6368 35.2811C22.6399 35.2811 22.12 34.5623 22.12 33.5754C22.12 32.5355 22.6234 31.7076 23.7428 31.7076C24.6304 31.7076 24.9682 32.3533 25.0178 32.9329H24.4648ZM27.7932 35.1851V34.6915L27.7799 34.675C27.5316 35.0758 27.2434 35.2745 26.7036 35.2745C26.1969 35.2745 25.6007 35.0294 25.6007 34.2279V31.7904H26.1638V34.0292C26.1638 34.5988 26.4552 34.781 26.8261 34.781C27.5448 34.781 27.7601 34.1517 27.7601 33.6483V31.7904H28.3264V35.1817H27.7899L27.7932 35.1851ZM29.83 35.1851H29.2637V31.7936H29.7836V32.3634H29.7969C30.0287 31.9626 30.3367 31.7042 30.7474 31.7042C30.8269 31.7042 30.8534 31.7043 30.903 31.7209V32.3037H30.6878C30.1512 32.3037 29.83 32.7177 29.83 33.2078V35.1851ZM32.0092 35.1851H31.4429V31.7936H32.0092V35.1851ZM31.4429 31.1843V30.5418H32.0092V31.1843H31.4429ZM33.5559 32.2739V34.463C33.5559 34.7412 33.7877 34.7412 33.9102 34.7412H34.1089V35.1851C33.8937 35.2016 33.7413 35.2313 33.6817 35.2313C33.1154 35.2313 32.9895 34.9068 32.9895 34.4928V32.2705H32.5292V31.7936H32.9895V30.863H33.5559V31.7936H34.1089V32.2705H33.5559V32.2739ZM36.7783 31.797H37.4076C37.0101 32.9032 36.6226 34.0027 36.1822 35.1089C35.6456 36.49 35.5993 36.5661 34.864 36.5661C34.7879 36.5661 34.7084 36.5362 34.6157 36.5197V35.9964C34.6951 36.0129 34.821 36.0593 34.9733 36.0593C35.2648 36.0593 35.2946 35.97 35.5695 35.2811L34.3143 31.797H34.9601L35.8642 34.5591H35.8808L36.7849 31.797H36.7783ZM39.0469 30.5418H42.8092V31.0949H41.2427V35.1851H40.6101V31.0949H39.0469V30.5418ZM42.9914 33.2245C42.9914 32.7045 43.402 32.211 43.9253 32.211C44.6274 32.211 44.8427 32.7045 44.8758 33.2245H42.9914ZM44.846 34.1318C44.8294 34.3736 44.5082 34.791 43.9717 34.791C43.3292 34.791 42.9947 34.3736 42.9947 33.6714H45.462C45.462 32.4726 44.9851 31.7076 44.0015 31.7076C42.8986 31.7076 42.3919 32.5355 42.3919 33.5754C42.3919 34.559 42.945 35.2811 43.8988 35.2811C44.4519 35.2811 44.6639 35.1553 44.8195 35.0526C45.2468 34.7612 45.4024 34.2809 45.4157 34.1318H44.846ZM48.2672 32.9329C48.1877 32.4891 47.9426 32.211 47.4524 32.211C46.747 32.211 46.5318 32.8865 46.5318 33.486C46.5318 34.0854 46.6675 34.791 47.4524 34.791C47.8366 34.791 48.1579 34.4994 48.2672 33.9894H48.8203C48.7573 34.5292 48.4195 35.2811 47.4392 35.2811C46.4589 35.2811 45.9257 34.5623 45.9257 33.5754C45.9257 32.5355 46.4291 31.7076 47.5485 31.7076C48.4361 31.7076 48.7606 32.3533 48.8236 32.9329H48.2705H48.2672ZM52.1321 35.1851H51.5658V32.9628C51.5658 32.5025 51.4432 32.2143 50.8869 32.2143C50.4298 32.2143 49.9529 32.4891 49.9529 33.3469V35.1883H49.3899V30.5418H49.9529V32.2573H49.9662C50.1218 32.042 50.4133 31.7076 50.9465 31.7076C51.4797 31.7076 52.1288 31.9261 52.1288 32.87V35.1883L52.1321 35.1851ZM56.8648 32.7012H58.9082V35.1851H58.4942L58.3419 34.5723C58.0339 35.0195 57.451 35.3075 56.8251 35.3075C56.0269 35.3075 55.6262 35.0162 55.3976 34.7711C54.6757 34.112 54.6624 33.3171 54.6624 32.8236C54.6624 31.6909 55.3546 30.416 56.8681 30.416C57.7292 30.416 58.6929 30.9028 58.8287 31.9494H58.216C58.0173 31.1347 57.3417 30.9691 56.8217 30.9691C55.9905 30.9691 55.3016 31.6447 55.3016 32.8535C55.3016 33.804 55.6261 34.7711 56.8515 34.7711C57.0801 34.7711 57.4675 34.7412 57.802 34.463C58.216 34.1418 58.3121 33.7311 58.3121 33.241H56.8681V32.7012H56.8648ZM60.2396 33.2211C60.2396 32.7011 60.6668 32.2076 61.1901 32.2076C61.879 32.2076 62.0975 32.7011 62.1273 33.2211H60.2396ZM62.0975 34.1286C62.0777 34.3704 61.773 34.7876 61.2365 34.7876C60.5774 34.7876 60.2396 34.3703 60.2396 33.6682H62.7235C62.7235 32.4693 62.2333 31.7042 61.2696 31.7042C60.1502 31.7042 59.6434 32.5322 59.6434 33.5722C59.6434 34.5558 60.2098 35.2777 61.1603 35.2777C61.6968 35.2777 61.9154 35.1519 62.0644 35.0492C62.495 34.7578 62.644 34.2776 62.6771 34.1286H62.0975ZM64.0416 35.1851H63.472V31.7936H64.0085V32.3634H64.0217C64.2503 31.9626 64.545 31.7042 64.9723 31.7042C65.0352 31.7042 65.0782 31.7043 65.1246 31.7209V32.3037H64.9093C64.3728 32.3037 64.0383 32.7177 64.0383 33.2078V35.1851H64.0416ZM65.7141 31.7936H66.2506V32.2705H66.2639C66.3864 32.0884 66.6812 31.7042 67.2773 31.7042C67.8735 31.7042 68.092 32.0719 68.1781 32.254C68.4563 31.9328 68.6849 31.7042 69.2081 31.7042C69.5791 31.7042 70.2679 31.8897 70.2679 32.8402V35.1851H69.6983V32.9958C69.6983 32.5355 69.5426 32.211 69.0657 32.211C68.5888 32.211 68.2709 32.6714 68.2709 33.1152V35.1851H67.7045V32.8402C67.7045 32.5488 67.5986 32.2076 67.1713 32.2076C66.8468 32.2076 66.2838 32.423 66.2838 33.3437V35.1851H65.7141V31.7936ZM73.1658 33.9994C73.1658 34.4598 72.6425 34.8008 72.1093 34.8008C71.6788 34.8008 71.4933 34.5889 71.4933 34.2213C71.4933 33.7874 71.9371 33.7013 72.2286 33.6682C72.9373 33.5755 73.0731 33.5291 73.1658 33.453V34.0026V33.9994ZM71.5993 32.8236C71.649 32.562 71.7384 32.1646 72.3809 32.1646C72.9174 32.1646 73.1791 32.3633 73.1791 32.7177C73.1791 33.0522 73.0135 33.1152 72.8711 33.1152L71.9338 33.241C70.9833 33.3602 70.9071 34.0192 70.9071 34.2974C70.9071 34.877 71.3542 35.2777 71.9636 35.2777C72.626 35.2777 72.9638 34.9698 73.1956 34.7247C73.2089 34.9863 73.285 35.248 73.7918 35.248C73.9143 35.248 74.007 35.2016 74.0998 35.1817V34.7677C74.0368 34.7677 73.9607 34.7844 73.9176 34.7844C73.7951 34.7844 73.7322 34.738 73.7322 34.5856V32.6349C73.7322 31.7738 72.7518 31.6976 72.4769 31.6976C71.6523 31.6976 71.1091 32.0024 71.0793 32.8171H71.6026L71.5993 32.8236ZM77.4447 35.1851H76.8751V33.1019C76.8751 32.5024 76.7062 32.2076 76.1531 32.2076C75.8352 32.2076 75.2622 32.423 75.2622 33.3437V35.1851H74.6992V31.7936H75.2357V32.2705H75.2523C75.3583 32.0884 75.6795 31.7042 76.2624 31.7042C76.7857 31.7042 77.4447 31.9229 77.4447 32.8668V35.1851ZM80.3128 31.7936H80.9388C80.5414 32.8998 80.1572 33.9993 79.7101 35.1055C79.1769 36.4866 79.1305 36.5627 78.392 36.5627C78.3025 36.5627 78.2396 36.533 78.1502 36.5165V35.9932C78.2264 36.0097 78.3489 36.0561 78.5046 36.0561C78.7927 36.0561 78.8225 35.9666 79.0974 35.2777L77.8422 31.7936H78.4847L79.3921 34.5559H79.4054L80.3095 31.7936H80.3128Z" fill="white"/>
</svg>
