<svg width="80" height="39" viewBox="0 0 80 39" fill="none" xmlns="http://www.w3.org/2000/svg">
<path d="M62.6474 -0.000244141C61.3227 -0.000244141 54.3744 0.509777 46.7339 10.5911L46.9823 10.5614C51.5725 10.0646 57.7061 8.61725 60.9054 4.56021C62.5746 2.44392 62.7468 0.473353 62.7633 -0.000244141H62.6507H62.6474Z" fill="white"/>
<path d="M49.2212 12.2173C47.9793 12.2173 47.032 12.2768 46.6677 12.3033L46.7373 12.3729C49.6551 15.0124 52.8742 16.3471 56.302 16.3471C58.5309 16.3471 60.1537 15.7444 60.6041 15.5589C58.3288 12.6511 52.5132 12.2173 49.2179 12.2173" fill="white"/>
<path d="M40.6302 21.1693L39.9016 21.782L39.1763 21.1693C37.0169 19.1722 35.6061 17.2414 34.6854 15.4961C34.5032 16.44 33.9932 21.2422 39.8983 26.6935C45.8 21.2422 45.2999 16.44 45.1078 15.4961C44.1938 17.2414 42.7763 19.1722 40.6269 21.1693" fill="white"/>
<path d="M45.0747 8.71662L45.0515 8.62056C43.3956 7.45478 41.7264 6.85547 39.9016 6.85547C38.0767 6.85547 36.4075 7.45147 34.7516 8.62056L34.7284 8.71662C34.5463 9.62738 34.0097 14.4263 39.9016 19.8777C45.7901 14.4263 45.2569 9.62738 45.0747 8.71662Z" fill="white"/>
<path d="M32.8208 10.5614L33.0692 10.5911C25.4353 0.509777 18.487 -0.000244141 17.1656 -0.000244141H17.053C17.0695 0.476665 17.2384 2.44392 18.9076 4.56021C22.1069 8.61725 28.2372 10.0646 32.8241 10.5614" fill="white"/>
<path d="M19.2024 15.5589C19.6528 15.7444 21.269 16.3471 23.5045 16.3471C26.9323 16.3471 30.1481 15.0091 33.0626 12.3729L33.1354 12.3033C32.7744 12.2768 31.8206 12.2173 30.5853 12.2173C27.2933 12.2173 21.4776 12.6544 19.2024 15.5589Z" fill="white"/>
<path d="M39.9016 5.53727C40.9117 5.53727 41.8092 5.70277 42.7796 6.02402C42.8193 5.77894 42.8491 5.51728 42.8491 5.25233C42.8491 3.27514 41.5376 1.66895 39.9016 1.66895C38.2655 1.66895 36.9507 3.27514 36.9507 5.25233C36.9507 5.51397 36.9805 5.77563 37.0235 6.02402C37.9939 5.70277 38.8915 5.53727 39.9049 5.53727" fill="white"/>
<path d="M5.65005 31.2971C5.01417 31.2971 4.58366 31.4528 4.35514 31.7641L0 38.3051H2.86146L3.70269 36.8578H8.82285L9.70046 38.3051H12.5652L7.78955 31.2971H5.65337H5.65005ZM4.42799 35.6755L6.25946 32.7047L8.09421 35.6755H4.42799Z" fill="white"/>
<path d="M22.7625 31.8668C22.0736 31.4893 21.0337 31.2971 19.6328 31.2971H15.1617C14.7809 31.2971 14.4563 31.3666 14.1881 31.5124C13.9264 31.6548 13.7874 31.827 13.7874 32.029V38.3051H16.4998V35.8013H19.8216C21.1231 35.8013 22.1134 35.6092 22.8023 35.2283C23.4911 34.8243 23.8322 34.2646 23.8322 33.5592C23.8322 32.8074 23.4713 32.2477 22.7625 31.8668ZM20.6595 34.2911C20.3548 34.4567 19.848 34.5395 19.136 34.5395H16.4998V32.5226H19.2884C19.8713 32.5226 20.3449 32.602 20.6992 32.7676C21.0039 32.9563 21.1563 33.2047 21.1563 33.5194C21.1563 33.8903 20.9907 34.142 20.6628 34.2943" fill="white"/>
<path d="M25.8626 31.5157C25.5976 31.6581 25.4685 31.8303 25.4685 32.0324V38.3083H28.1776V31.3003H26.8429C26.4554 31.3003 26.1342 31.37 25.8626 31.5157Z" fill="white"/>
<path d="M39.7989 32.1516C38.802 31.5853 37.3051 31.2971 35.2914 31.2971H31.5093C31.1284 31.2971 30.8039 31.3666 30.5356 31.5124C30.2673 31.6548 30.1382 31.827 30.1382 32.029V38.3051H34.5662C35.8081 38.3051 36.7453 38.2587 37.3547 38.1594C37.9906 38.0667 38.5901 37.9043 39.1498 37.6725C39.8088 37.4042 40.3453 37.0101 40.756 36.4934C41.1071 35.9867 41.2892 35.4237 41.2892 34.7977C41.2892 33.6319 40.7924 32.7477 39.8022 32.1516M37.7025 36.5101C37.113 36.8645 36.1989 37.0432 34.9503 37.0432H32.7744V32.5226H35.2981C36.4142 32.5226 37.2289 32.708 37.7389 33.0756C38.2754 33.4366 38.5437 34.0162 38.5437 34.8011C38.5437 35.586 38.2622 36.1888 37.7058 36.5133" fill="white"/>
<path d="M50.7743 35.6754C50.7743 36.2351 50.5723 36.6358 50.1616 36.8776C49.7311 37.1227 49.0787 37.2486 48.2143 37.2486C47.3499 37.2486 46.6709 37.1227 46.2669 36.8776C45.8827 36.6193 45.6939 36.2186 45.6939 35.6754V31.3003H44.3228C43.9386 31.3003 43.6108 31.3765 43.3458 31.5322C43.0776 31.6912 42.9451 31.87 42.9451 32.0688V35.841C42.9451 36.712 43.3988 37.3711 44.3195 37.8149C45.1541 38.2653 46.4557 38.4871 48.2143 38.4871C49.9729 38.4871 51.2711 38.2653 52.1123 37.8149C53.0297 37.3678 53.4868 36.7087 53.4868 35.841V31.3003H50.7743V35.6754Z" fill="white"/>
<path d="M65.9494 37.838C65.9229 37.7552 65.9097 37.6658 65.9097 37.5764V37.3081L65.8335 36.4769C65.7772 35.99 65.6414 35.6422 65.4129 35.4369C65.1811 35.2183 64.777 35.056 64.1875 34.9467C64.8499 34.8275 65.3367 34.6289 65.6414 34.3573C65.9991 34.0692 66.1713 33.7115 66.1713 33.2743C66.1713 32.6252 65.8169 32.1284 65.1082 31.7906C64.4193 31.4627 63.3629 31.3003 61.9354 31.3003H56.9279C56.5437 31.3003 56.2191 31.37 55.9509 31.5157C55.6892 31.6581 55.5535 31.8303 55.5535 32.0324V38.3083H58.2626V35.576H61.1273C61.8427 35.576 62.3362 35.6488 62.621 35.8045C62.8727 35.98 63.025 36.2682 63.0714 36.6788L63.1178 37.4339C63.1178 37.5167 63.1376 37.6658 63.1939 37.8844C63.2171 38.0368 63.2933 38.1759 63.4225 38.3117H66.3998C66.168 38.2421 66.019 38.083 65.9461 37.8412M62.9654 34.1353C62.6342 34.281 62.1275 34.3605 61.4387 34.3605H58.2626V32.5059H61.5877C62.2004 32.5059 62.6574 32.5853 62.9654 32.7476C63.2933 32.8967 63.4622 33.1286 63.4622 33.4399C63.4622 33.7512 63.2966 33.9829 62.9654 34.1353Z" fill="white"/>
<path d="M75.0404 31.2971H72.9043C72.2651 31.2971 71.8312 31.4528 71.6027 31.7641L67.2476 38.3051H70.1123L70.9469 36.8578H76.0704L76.948 38.3051H79.8161L75.0371 31.2971H75.0404ZM71.6822 35.6755L73.5136 32.7047L75.3451 35.6755H71.6822Z" fill="white"/>
</svg>
