<svg width="161" height="22" viewBox="0 0 161 22" fill="none" xmlns="http://www.w3.org/2000/svg">
<path d="M38.7158 10.8962C38.7158 16.9072 33.8274 21.7922 27.8197 21.7922H27.8131C26.0313 21.7889 8.56118 19.5136 7.52456 19.3712C3.29199 18.8678 0 15.2579 0 10.8962C0 6.53445 3.27544 2.94104 7.49145 2.42439C7.49145 2.42439 25.6537 0.0529964 27.7767 0.00663021L27.823 0C33.8308 0 38.7191 4.88845 38.7191 10.8962M27.8429 2.90452C26.4122 2.93432 14.8372 4.38823 7.86901 5.29899H7.84912C5.03072 5.64674 2.9012 8.05129 2.9012 10.8962C2.9012 13.7411 5.03736 16.1553 7.86901 16.4964H7.88554L7.90212 16.4998C16.8972 17.6722 26.6341 18.8744 27.8297 18.8943H27.8495C32.2477 18.8811 35.8245 15.2977 35.8245 10.8962C35.8245 6.49471 32.2974 2.96413 27.9389 2.90452C27.8959 2.90452 27.8462 2.90452 27.8462 2.90452" fill="white"/>
<path d="M5.6665 10.9227C5.6665 13.0091 7.35887 14.6948 9.43873 14.6948C11.5186 14.6948 13.2076 13.0091 13.2076 10.9227C13.2076 8.83618 11.5252 7.15039 9.43873 7.15039C7.35225 7.15039 5.6665 8.83618 5.6665 10.9227Z" fill="white"/>
<path d="M22.0967 10.9227C22.0967 13.9332 24.5342 16.3706 27.548 16.3706C30.5618 16.3706 32.9961 13.9332 32.9961 10.9227C32.9961 7.91221 30.5585 5.47461 27.548 5.47461C24.5375 5.47461 22.0967 7.91552 22.0967 10.9227Z" fill="white"/>
<path d="M50.2776 16.3044C47.4857 16.3044 45.6675 14.2807 45.6675 11.0947C45.6675 7.9087 47.5022 5.7561 50.3571 5.7561C52.6754 5.7561 54.1989 7.00464 54.4473 9.11099H53.6557C53.3047 7.36232 52.1753 6.42171 50.3604 6.42171C48.0089 6.42171 46.4888 8.23338 46.4888 11.0485C46.4888 13.8636 47.9858 15.6785 50.261 15.6785C52.1786 15.6785 53.4901 14.4928 53.7418 12.5322H54.5334C54.222 14.93 52.6588 16.3044 50.2809 16.3044" fill="white"/>
<path d="M61.243 6.75643H60.9515C59.8288 6.75643 58.8452 7.23328 58.1961 8.11093C57.5569 8.98858 57.3648 9.7569 57.3648 11.7208V16.0363H56.5732V6.04764H57.3449V8.67401C57.7622 7.59103 58.1596 7.04777 58.8684 6.56755C59.5142 6.15356 60.1998 5.96484 61.1801 5.96484H61.243V6.75643Z" fill="white"/>
<path d="M71.0893 15.9732C70.8178 16.0362 70.5826 16.0758 70.2945 16.0758C69.3771 16.0758 69.1254 15.6982 69.1254 14.3238V13.9297C68.2908 15.5757 67.0819 16.3044 65.2273 16.3044C63.1441 16.3044 61.9121 15.2843 61.9121 13.5323C61.9121 11.6744 63.1839 10.6741 65.7473 10.4655L67.6648 10.2932C68.7677 10.1873 69.0823 9.92239 69.0823 8.95863C69.0823 7.22653 68.1914 6.41846 66.2507 6.41846C64.3099 6.41846 63.3925 7.29598 63.227 9.10757H62.4718C62.601 6.94161 63.9754 5.75269 66.3302 5.75269C67.5986 5.75269 68.7081 6.16999 69.2943 6.83567C69.7513 7.37882 69.854 7.81594 69.854 9.19037V14.337C69.854 15.1948 70.003 15.4266 70.5627 15.4266C70.7515 15.4266 70.831 15.4035 71.086 15.3439V15.9698L71.0893 15.9732ZM66.8766 11.0318C65.0783 11.1974 64.6013 11.3001 63.9357 11.5949C63.1872 11.9492 62.7699 12.6182 62.7699 13.4528C62.7699 14.7875 63.7701 15.642 65.3333 15.642C67.5026 15.642 69.0856 14.1616 69.0856 12.1381V10.3628C68.7313 10.7403 68.2543 10.8861 66.8799 11.0318" fill="white"/>
<path d="M73.3778 8.23351C73.6924 7.54464 73.858 7.29617 74.2124 6.91862C74.8979 6.19001 75.9213 5.77612 77.0672 5.77612C78.276 5.77612 79.3193 6.2298 79.9254 7.04783C80.4453 7.7367 80.591 8.29646 80.591 9.6742V16.0363H79.7995V9.88281C79.7796 8.83957 79.6902 8.33938 79.465 7.87903C79.0278 7.00139 78.0674 6.48151 76.9016 6.48151C75.6299 6.48151 74.5204 7.08101 73.9607 8.10769C73.5666 8.85949 73.4175 9.5449 73.4175 10.8597V16.0329H72.626V6.04424H73.3944L73.3745 8.23351H73.3778Z" fill="white"/>
<path d="M86.8075 9.77998L91.4773 16.0361H90.497L86.2081 10.3198L83.9328 12.2374V16.0361H83.1777V2.14941H83.9328V11.3664C84.1381 11.1776 84.2839 11.0517 84.3898 10.9524C84.5554 10.8034 84.6581 10.7007 84.7409 10.6411L90.0995 6.05412H91.1825L86.8042 9.78661L86.8075 9.77998Z" fill="white"/>
<path d="M93.4181 8.40225C94.0838 6.6304 95.3788 5.71297 97.2136 5.71297C99.9028 5.71297 101.608 7.77628 101.608 11.0319C101.608 14.2874 99.926 16.3242 97.2136 16.3242C95.2728 16.3242 94.0441 15.4931 93.3751 13.6351V16.0328H92.6465V2.14624H93.4181V8.39901V8.40225ZM93.395 11.012C93.395 13.8436 94.8588 15.6785 97.1506 15.6785C99.4424 15.6785 100.82 13.8835 100.82 11.0485C100.82 8.21355 99.406 6.37534 97.0877 6.37534C94.7694 6.37534 93.3983 8.21351 93.3983 11.0087" fill="white"/>
<path d="M108.49 6.75643H108.199C107.076 6.75643 106.096 7.23328 105.45 8.11093C104.801 8.98858 104.615 9.7569 104.615 11.7208V16.0363H103.824V6.04764H104.595V8.67401C105.009 7.59103 105.407 7.04777 106.119 6.56755C106.765 6.15356 107.45 5.96484 108.434 5.96484H108.493V6.75643H108.49Z" fill="white"/>
<path d="M118.459 11.0915C118.459 14.3007 116.667 16.321 113.832 16.321C110.997 16.321 109.202 14.2576 109.202 11.0451C109.202 7.83259 111.057 5.74951 113.849 5.74951C116.641 5.74951 118.459 7.85259 118.459 11.0883M109.994 11.0252C109.994 13.837 111.497 15.6552 113.849 15.6552C116.2 15.6552 117.644 13.8603 117.644 11.0883C117.644 8.31625 116.144 6.43841 113.832 6.43841C111.52 6.43841 109.994 8.27305 109.994 11.0252Z" fill="white"/>
<path d="M124.254 6.71314H122.132V13.486C122.112 15.0558 122.337 15.3871 123.443 15.3871C123.652 15.3871 123.884 15.3672 124.254 15.3043V16.0163C123.814 16.0792 123.652 16.0792 123.301 16.0792C121.635 16.0792 121.314 15.6189 121.314 13.2012V6.71653H119.502V6.05076H121.314V2.92114H122.112V6.05076H124.258V6.71653L124.254 6.71314Z" fill="white"/>
<path d="M126.861 7.13054L126.838 7.67373V8.31622C127.106 7.61079 127.361 7.21336 127.755 6.81924C128.444 6.15356 129.355 5.77604 130.402 5.77604C131.716 5.77604 132.756 6.29597 133.405 7.23323C133.823 7.85917 133.988 8.50499 133.988 9.63434V16.0362H133.197V9.75691C133.174 8.48515 132.965 7.81943 132.362 7.23323C131.819 6.73314 131.09 6.46154 130.252 6.46154C128.941 6.46154 127.878 7.13051 127.312 8.33934C126.98 9.04808 126.855 9.75688 126.855 10.9657V16.0328H126.063V2.14624H126.855V7.12715L126.861 7.13054Z" fill="white"/>
<path d="M140.665 16.3675C137.916 16.3675 136.098 14.324 136.098 11.1513C136.098 7.97849 137.956 5.77271 140.665 5.77271C143.374 5.77271 145.047 7.81619 145.047 11.0486V11.1744H136.953C136.953 14.0325 138.347 15.6985 140.665 15.6985C142.5 15.6985 143.775 14.5922 144.149 12.6581H144.921C144.524 15.0128 142.96 16.3707 140.665 16.3707M140.642 6.46483C139.37 6.46483 138.224 7.1107 137.598 8.17381C137.161 8.92561 137.059 9.34286 136.929 10.5285H144.229C144.103 7.9883 142.748 6.46483 140.642 6.46483Z" fill="white"/>
<path d="M151.737 6.75643H151.445C150.319 6.75643 149.339 7.23328 148.693 8.11093C148.047 8.98858 147.858 9.7569 147.858 11.7208V16.0363H147.067V6.04764H147.835V8.67401C148.253 7.59103 148.65 7.04777 149.359 6.56755C150.005 6.15356 150.693 5.96484 151.67 5.96484H151.733V6.75643H151.737Z" fill="white"/>
<path d="M159.41 8.96198C159.261 7.22987 158.327 6.46158 156.363 6.46158C154.654 6.46158 153.615 7.19346 153.615 8.40229C153.615 9.61113 154.138 9.906 156.784 10.5088C158.158 10.8201 158.761 11.032 159.347 11.3466C160.076 11.7804 160.513 12.5322 160.513 13.4099C160.513 15.1585 158.91 16.3277 156.575 16.3277C153.969 16.3277 152.532 15.0558 152.465 12.7011H153.26C153.3 13.6218 153.403 13.9962 153.737 14.4764C154.28 15.2249 155.3 15.6653 156.552 15.6653C158.45 15.6653 159.702 14.791 159.702 13.4563C159.702 12.2872 159.056 11.8267 156.615 11.267C154.883 10.8696 154.423 10.7273 153.903 10.4292C153.191 10.055 152.797 9.34626 152.797 8.48849C152.797 6.80275 154.151 5.78271 156.383 5.78271C158.824 5.78271 160.053 6.80265 160.202 8.96861H159.407L159.41 8.96198Z" fill="white"/>
</svg>
