<svg width="109" height="29" viewBox="0 0 109 29" fill="none" xmlns="http://www.w3.org/2000/svg">
<path d="M12.1148 21.6795H16.6422L20.2355 9.98857H20.3779L21.4245 21.6795H28.9292L25.4186 0.337817H17.5231L14.5722 11.5485H14.3735L11.4325 0.337817H3.45094L0 21.6795H7.49804L8.70025 9.98857H8.85925L12.1148 21.6795ZM51.4631 11.0682C51.4631 4.3584 46.141 0.00331511 39.6597 0.00331511C33.1783 0.00331511 27.8561 4.3584 27.8561 11.0682C27.8561 17.7781 33.1485 22.0239 39.6597 22.0239C46.1708 22.0239 51.4631 17.9205 51.4631 11.0682ZM39.6597 15.2876C37.3082 15.2876 35.6721 13.6151 35.6721 11.1809C35.6721 8.91556 37.1989 7.02115 39.6597 7.02115C42.1204 7.02115 43.6504 8.91556 43.6504 11.1809C43.6504 13.6151 42.0078 15.2876 39.6597 15.2876ZM63.6078 0.00663021C57.1264 0.00663021 51.8076 4.36171 51.8076 11.0716C51.8076 17.7814 57.0966 22.0273 63.6078 22.0273C70.1189 22.0273 75.408 17.9238 75.408 11.0716C75.408 4.2193 70.0924 0.00663021 63.6078 0.00663021ZM63.6078 15.2876C61.2597 15.2876 59.6203 13.6151 59.6203 11.1809C59.6203 8.91556 61.147 7.02115 63.6078 7.02115C66.0685 7.02115 67.5986 8.91556 67.5986 11.1809C67.5986 13.6151 65.9559 15.2876 63.6078 15.2876ZM87.2545 21.6828V7.27617H91.5302V0.341132H75.2258V7.27617H79.4981V21.6828H87.2545ZM97.5048 13.5588L99.058 13.8403C99.7701 13.986 100.79 14.0688 100.79 15.0292C100.79 15.9897 99.5714 16.3043 98.8063 16.3043C97.0212 16.3043 95.3554 15.4267 93.971 14.347L93.5703 14.039L91.1924 20.0667C93.6001 21.2854 96.7132 22.0206 99.4058 22.0206C104.023 22.0206 108.659 19.5003 108.659 14.4033C108.659 10.7801 106.281 9.02817 103.002 8.28962L101.244 7.89553C100.651 7.75312 99.6906 7.64046 99.6906 6.84893C99.6906 5.97128 100.678 5.71629 101.36 5.71629C103.032 5.71629 104.533 6.42499 105.861 7.32913L107.957 1.86786C105.861 0.592789 103.628 0 101.194 0C96.5509 0 91.9408 2.83168 91.9408 7.89553C91.9408 11.2339 94.4877 13.0189 97.518 13.5555L97.5048 13.5588ZM32.251 28.81H33.5426V25.2497H32.251V28.81ZM28.9557 27.2302C28.9557 27.5117 28.9457 27.7535 28.598 27.7535C28.2502 27.7535 28.2436 27.5084 28.2436 27.2302V25.2464H26.952V27.3561C26.952 28.3927 27.6044 28.8662 28.598 28.8662C29.5916 28.8662 30.2506 28.3927 30.2506 27.3561V25.2464H28.9557V27.2302ZM24.4946 26.9818V26.952C24.8059 26.8526 24.9648 26.5479 24.9648 26.2366C24.9648 25.412 24.2561 25.2497 23.5672 25.2497H22.0571V28.81H23.8189C24.4449 28.81 25.1272 28.5649 25.1272 27.8297C25.1272 27.4024 24.8788 27.1176 24.4913 26.9818H24.4946ZM23.2593 26.1075H23.352C23.5374 26.1075 23.7792 26.0909 23.7792 26.3559C23.7792 26.6043 23.5673 26.6208 23.3785 26.6208H23.2593V26.1108V26.1075ZM23.405 27.9654H23.2593V27.3726H23.3884C23.5938 27.3726 23.925 27.3693 23.925 27.6674C23.925 27.9655 23.6169 27.9621 23.405 27.9621V27.9654ZM6.80255 25.2497L5.56723 28.81H6.93504L7.03773 28.3661H8.01471L8.13725 28.81H9.50505L8.23662 25.2497H6.80255ZM7.27286 27.5249L7.5113 26.4354H7.55436C7.57754 26.5844 7.60404 26.7433 7.64378 26.8957L7.7928 27.5249H7.27286ZM2.63955 26.4486H1.84138V25.2497H0.596112V28.81H1.84138V27.5746H2.63955V28.81H3.88813V25.2497H2.63955V26.4486ZM13.5157 26.3161C13.5157 26.6175 13.5753 26.9255 13.625 27.2236H13.5853L12.4261 25.2464H11.1808V28.8066H12.4228V27.6508C12.4228 27.4157 12.383 27.1806 12.34 26.9388H12.3797L13.519 28.8066H14.7577V25.2464H13.519V26.3161H13.5157ZM18.0695 25.2464H16.7481V28.8066H18.3875C19.4373 28.8066 20.1825 28.1377 20.1825 27.0812C20.1825 25.7697 19.2651 25.2464 18.0662 25.2464H18.0695ZM18.1259 27.7435H18.0464V26.3625H18.1259C18.5995 26.3625 18.8876 26.5778 18.8876 27.0779C18.8876 27.5448 18.5564 27.7435 18.1259 27.7435ZM95.4514 25.2464H94.0372L93.4113 26.389C93.3384 26.5148 93.259 26.644 93.2292 26.793H93.1993L93.2292 25.2464H91.9673V28.8066H93.2292L93.1993 27.313H93.2292C93.259 27.462 93.3749 27.5945 93.4477 27.7303L94.0604 28.8033H95.564L94.332 26.9752L95.4514 25.2431V25.2464ZM89.3178 26.3327C89.6126 26.3327 89.8345 26.4983 90.0497 26.6904L90.0398 25.3358C89.7683 25.2398 89.4668 25.1868 89.1754 25.1868C88.1255 25.1868 87.3075 26.0214 87.3075 27.0613C87.3075 28.1012 88.1057 28.8696 89.1158 28.8696C89.3476 28.8696 89.8345 28.8265 90.0398 28.7272L90.0497 27.3925C89.8345 27.5978 89.6391 27.7203 89.341 27.7203C88.9502 27.7203 88.619 27.4222 88.619 27.0281C88.619 26.634 88.937 26.336 89.3211 26.336L89.3178 26.3327ZM97.2696 28.8066H98.5613V25.2464H97.2696V28.8066ZM83.585 25.1868C82.5053 25.1868 81.6177 25.9187 81.6177 27.0381C81.6177 28.1575 82.4987 28.8662 83.585 28.8662C84.6712 28.8662 85.5589 28.1774 85.5589 27.0381C85.5589 25.8988 84.6679 25.1868 83.585 25.1868ZM83.585 27.7402C83.1975 27.7402 82.9193 27.462 82.9193 27.058C82.9193 26.6771 83.1776 26.3592 83.585 26.3592C83.9923 26.3592 84.2573 26.6771 84.2573 27.058C84.2573 27.462 83.9791 27.7402 83.585 27.7402ZM106.738 26.5744L106.447 26.5049C106.347 26.4817 106.188 26.4652 106.188 26.3327C106.188 26.187 106.354 26.1406 106.463 26.1406C106.742 26.1406 106.993 26.2598 107.218 26.4122L107.57 25.4981C107.218 25.2861 106.848 25.1835 106.437 25.1835C105.662 25.1835 104.89 25.6571 104.89 26.5016C104.89 27.058 105.317 27.3593 105.827 27.4487L106.086 27.4952C106.205 27.515 106.371 27.5315 106.371 27.6938C106.371 27.8561 106.172 27.9058 106.039 27.9058C105.741 27.9058 105.467 27.7601 105.235 27.5813L105.168 27.5282L104.771 28.5351C105.168 28.7338 105.688 28.8596 106.136 28.8596C106.91 28.8596 107.682 28.4357 107.682 27.5879C107.682 26.9851 107.285 26.6904 106.735 26.5678L106.738 26.5744ZM101.87 27.4852H102.867V26.5579H101.87V26.2167H102.959V25.2431H100.565V28.8033H102.996V27.833H101.87V27.4852ZM79.1007 27.4356V27.4057C79.5842 27.2435 79.7862 27.0215 79.7862 26.4784C79.7862 25.5776 79.1139 25.2398 78.3025 25.2398H76.7427V28.8H78.0045V27.6608H78.0277L78.5973 28.8H80.091L79.3226 27.6442C79.2497 27.5415 79.1669 27.4786 79.1007 27.4323V27.4356ZM78.0972 26.8228H78.0078V26.2167H78.1071C78.3324 26.2167 78.5244 26.2499 78.5244 26.5248C78.5244 26.7997 78.3125 26.8228 78.0972 26.8228ZM39.3351 26.3658H40.0504V28.8066H41.3454V26.3658H42.0608V25.2431H39.3384V26.3658H39.3351ZM47.2107 28.8066H48.5123V25.2464H47.2107V28.8066ZM52.8442 26.3128C52.8442 26.6142 52.9005 26.9222 52.9568 27.2202H52.9104L51.7513 25.2431H50.5027V28.8033H51.7447V27.6475C51.7447 27.4123 51.7082 27.1772 51.6652 26.9355H51.7016L52.8409 28.8033H54.0795V25.2431H52.8409V26.3128H52.8442ZM36.8611 25.2431H35.5628V28.8033H37.9474V27.6641H36.8611V25.2431ZM59.2162 26.3658H59.925V28.8066H61.2266V26.3658H61.9353V25.2431H59.2162V26.3658ZM65.7406 26.4453H64.9425V25.2464H63.6939V28.8066H64.9425V27.5713H65.7406V28.8066H66.9892V25.2464H65.7406V26.4453ZM70.2712 27.4885H71.2748V26.5612H70.2712V26.2201H71.3675V25.2464H68.9697V28.8066H71.4039V27.8363H70.2679V27.4885H70.2712Z" fill="white"/>
</svg>
