<svg width="65" height="49" viewBox="0 0 65 49" fill="none" xmlns="http://www.w3.org/2000/svg">
<path d="M24.083 24.0382C24.381 24.429 24.4671 24.8629 24.4671 25.3399C24.4671 26.9196 24.4671 28.5093 24.4671 30.0957V30.3507H22.9238V25.5915C22.9238 25.4855 22.9271 25.3762 22.9172 25.2736C22.894 24.9357 22.7317 24.7734 22.4005 24.7635C22.2217 24.7569 22.0429 24.7635 21.8442 24.7635V30.3539H20.3174V17.6695C20.3869 17.6695 20.4498 17.6562 20.5128 17.6562C21.2613 17.6562 22.0064 17.6562 22.7549 17.6562C23.7419 17.6629 24.4671 18.3916 24.4671 19.3785V22.8857C24.4671 23.3096 24.3943 23.7104 24.083 24.0382ZM21.8541 19.2063V23.3096C22.0461 23.3096 22.225 23.3096 22.4005 23.3096C22.7516 23.2963 22.9172 23.1341 22.9172 22.7897C22.9271 21.7398 22.9238 20.6965 22.9172 19.6466C22.9172 19.375 22.7946 19.2361 22.5164 19.2129C22.3012 19.1963 22.0892 19.2095 21.8508 19.2095" fill="white"/>
<path d="M40.2151 48.0097H38.6851V43.2605C38.6851 43.1909 38.6851 43.1148 38.6851 43.0453C38.6718 42.5617 38.5162 42.4093 38.026 42.406H37.6054V48.0064H36.0786V35.3219C36.1316 35.3219 36.1979 35.3086 36.2575 35.3086C36.9861 35.3086 37.7213 35.302 38.4499 35.3086C39.513 35.3152 40.2118 36.0108 40.2151 37.0773C40.2184 38.2165 40.2184 39.3592 40.2151 40.4984C40.2151 41.0813 40.1456 41.3097 39.8442 41.6972C40.182 42.1112 40.2251 42.6113 40.2218 43.1313C40.2151 44.668 40.2218 46.2014 40.2218 47.7381V48.0097H40.2151ZM37.6087 40.9587C37.7942 40.9587 37.973 40.9587 38.1518 40.9587C38.4863 40.9487 38.6685 40.7964 38.6751 40.4619C38.6884 39.4021 38.6817 38.3423 38.6784 37.2792C38.6784 37.064 38.5625 36.9017 38.3439 36.8719C38.1022 36.8388 37.8637 36.842 37.6087 36.8321V40.9587Z" fill="white"/>
<path d="M34.5451 12.705H33.0084V7.12788H31.5876V12.6952H30.031V0.785682C30.031 0.196169 30.2297 0.00412546 30.8225 0.00412546H31.5677V5.62428H32.9951V0.00735971C33.3561 0.00735971 33.6939 -0.00919964 34.0284 0.00735971C34.3033 0.0206072 34.4888 0.232599 34.5351 0.537291C34.5451 0.610153 34.5451 0.682981 34.5451 0.752531V12.7018V12.705Z" fill="white"/>
<path d="M18.7507 41.6707C18.7507 43.2206 18.7275 44.7673 18.7573 46.3205C18.7805 47.43 17.8565 48.1454 16.9458 48.1057C16.5583 48.0924 16.1642 48.1288 15.7899 48.0659C14.9686 47.9367 14.4089 47.2578 14.3989 46.4232C14.389 45.89 14.3989 45.3601 14.3989 44.8302V37.0805C14.3989 35.9412 15.1077 35.2292 16.2503 35.2292C16.5748 35.2292 16.8994 35.2059 17.2173 35.2457C18.1281 35.355 18.7507 36.0736 18.754 36.9977C18.7573 38.5542 18.754 40.1108 18.754 41.6707M15.9389 41.6707C15.9389 43.161 15.9389 44.6513 15.9389 46.1417C15.9389 46.4331 16.0681 46.6187 16.3198 46.6981C16.6146 46.8041 16.9689 46.7412 17.1014 46.5127C17.1809 46.3669 17.2239 46.1782 17.2239 46.006C17.2339 43.1181 17.2273 40.2267 17.2239 37.3355C17.2239 37.2328 17.2438 37.1202 17.2008 37.0407C17.118 36.8983 17.0252 36.7195 16.8861 36.6632C16.4721 36.4877 15.9257 36.6467 15.9323 37.2627C15.9522 38.7299 15.9389 40.2002 15.9389 41.6707Z" fill="white"/>
<path d="M28.1236 35.3218H29.6603V46.2377C29.6603 47.4002 28.9482 48.1056 27.7957 48.1056C27.4248 48.1056 27.0439 48.1255 26.6763 48.0592C25.8781 47.9267 25.3018 47.2347 25.3018 46.4199C25.2919 42.7603 25.2952 39.1007 25.2952 35.4411C25.2952 35.408 25.3018 35.3715 25.3052 35.3218H26.8419V46.0588C26.8419 46.2609 26.8551 46.4464 27.0174 46.5922C27.2492 46.8008 27.5274 46.7677 27.7857 46.6882C28.054 46.6021 28.1269 46.3735 28.1269 46.1052C28.1269 42.8828 28.1269 39.6605 28.1269 36.4413V35.3218H28.1236Z" fill="white"/>
<path d="M52.5119 22.4155C52.5119 21.4551 52.4954 20.5111 52.5219 19.5772C52.5318 19.1499 52.1211 18.9248 51.7866 19.0341C51.5548 19.1136 51.4356 19.2693 51.4356 19.5375C51.4323 20.3456 51.4323 21.1602 51.4323 21.965V28.4696C51.4323 28.8008 51.6011 29.0326 51.8661 29.0757C52.2238 29.1353 52.5119 28.8902 52.5119 28.516C52.5119 27.6151 52.5119 26.721 52.5119 25.8235V25.5817C52.9127 25.5817 53.3034 25.5584 53.6909 25.5916C53.9128 25.6081 54.0453 25.8035 54.0486 26.0188C54.0553 26.9958 54.0851 27.9695 54.0288 28.9465C53.9824 29.7314 53.3697 30.3341 52.5914 30.4302C52.1642 30.4865 51.7237 30.4865 51.3031 30.4302C50.5149 30.3275 49.9419 29.6486 49.8922 28.8339C49.8922 28.7842 49.8889 28.7345 49.8889 28.6848C49.8889 25.5783 49.8889 22.4752 49.8889 19.3653C49.8889 18.5241 50.3691 17.8351 51.1209 17.6529C51.6939 17.5172 52.2834 17.5172 52.8497 17.6728C53.5287 17.8649 54.0255 18.4976 54.0453 19.2196C54.0685 20.1171 54.0586 21.0146 54.0486 21.9121C54.0486 22.1969 53.8698 22.3989 53.5883 22.4121C53.2439 22.432 52.8895 22.4188 52.5086 22.4188" fill="white"/>
<path d="M33.6211 30.3575H32.1407C31.4882 26.1283 30.8358 21.9055 30.1833 17.6531C30.6834 17.6531 31.157 17.6532 31.6273 17.6631C31.6671 17.6631 31.7333 17.7459 31.7433 17.7955C31.9089 18.8322 32.0645 19.8687 32.2235 20.902C32.4255 22.2268 32.6308 23.5483 32.8328 24.8731C32.8395 24.9128 32.8527 24.9526 32.8958 24.9956C33.2733 22.5548 33.6509 20.1106 34.0251 17.6631H35.5618C34.9127 21.8957 34.2669 26.1149 33.6144 30.3541" fill="white"/>
<path d="M6.14923 43.2074C6.53341 43.2074 6.89108 43.1908 7.25207 43.214C7.50377 43.2306 7.67932 43.4359 7.67932 43.6976C7.67932 44.6447 7.69255 45.5887 7.66937 46.5359C7.6495 47.3142 6.99042 47.9998 6.16577 48.0825C5.73854 48.1322 5.29806 48.1256 4.88076 48.0627C4.12234 47.9467 3.54279 47.2579 3.53616 46.4895C3.5196 45.2774 3.53285 44.0619 3.53285 42.8531C3.53285 40.8991 3.53285 38.9484 3.53285 36.9944C3.53285 36.1731 3.99651 35.4908 4.73506 35.3053C5.31463 35.1596 5.92069 35.1529 6.50027 35.3218C7.17589 35.5172 7.66275 36.1597 7.67269 36.8618C7.68924 37.7593 7.67931 38.657 7.676 39.5545C7.676 39.8128 7.51701 40.0313 7.28518 40.0412C6.91756 40.0677 6.54334 40.0513 6.14592 40.0513V39.8127C6.14592 38.9483 6.14592 38.0905 6.14592 37.2261C6.14592 36.7989 5.80149 36.554 5.40406 36.6831C5.19873 36.7527 5.07949 36.8916 5.06293 37.1102C5.05299 37.1797 5.0563 37.2527 5.0563 37.3222C5.0563 40.2201 5.0563 43.108 5.0563 46.0026C5.0563 46.0854 5.05299 46.1748 5.06293 46.2576C5.10267 46.5292 5.30802 46.7147 5.57297 46.7246C5.84454 46.7379 6.07635 46.5591 6.12934 46.2875C6.1459 46.2047 6.14592 46.1185 6.14592 46.0291C6.14592 45.168 6.14592 44.307 6.14592 43.4459V43.2008" fill="white"/>
<path d="M1.54245 26.1745V28.2046C1.54245 28.3272 1.53914 28.4497 1.54245 28.5722C1.55901 28.8636 1.7743 29.069 2.05912 29.0822C2.35056 29.0955 2.60556 28.9134 2.61881 28.6319C2.66186 27.6184 2.67843 26.605 2.17503 25.6711C1.65506 24.714 1.13841 23.7567 0.638315 22.7863C0.234266 21.9981 -0.043942 21.1768 0.00573611 20.2726C0.0289192 19.8487 -0.0141303 19.4215 0.0521071 19.0076C0.191206 18.1564 0.926441 17.5801 1.79084 17.5801C2.0856 17.5801 2.38368 17.5603 2.67512 17.5934C3.49978 17.6927 4.13234 18.4346 4.15883 19.3122C4.17208 19.7428 4.16877 20.1734 4.15883 20.6072C4.15552 20.9583 3.9601 21.1437 3.60242 21.147C3.2878 21.1536 2.9732 21.1502 2.6387 21.1502V20.892C2.6387 20.4184 2.63869 19.9481 2.63538 19.4778C2.62876 19.1831 2.39359 18.9645 2.10877 18.9513C1.82726 18.9413 1.56895 19.1566 1.55239 19.4414C1.47953 20.4482 1.57558 21.4185 2.09223 22.3293C2.5857 23.2069 3.05598 24.088 3.49315 24.9954C3.75147 25.5386 3.91375 26.1347 4.11246 26.7077C4.13565 26.7706 4.14226 26.8335 4.14226 26.8998C4.14557 27.5754 4.17869 28.251 4.14226 28.9233C4.10252 29.7579 3.36729 30.4401 2.5327 30.45C2.12865 30.4566 1.70806 30.4733 1.31063 30.3971C0.54228 30.2547 0.00904798 29.5558 0.00573611 28.7742C-0.000887636 28.0919 0.00242424 27.4098 0.00573611 26.7276C0.00573611 26.3831 0.187908 26.1844 0.522407 26.1777C0.856906 26.1678 1.18477 26.1777 1.54245 26.1777" fill="white"/>
<path d="M49.0082 38.7961V37.3952C49.0082 37.276 49.0082 37.16 48.9883 37.0507C48.9386 36.7792 48.7035 36.6037 48.4286 36.607C48.167 36.6169 47.9219 36.8223 47.9086 37.0905C47.8457 38.0576 47.9119 39.0081 48.3988 39.8857C48.9121 40.8164 49.4022 41.7568 49.8858 42.704C50.1805 43.2902 50.4488 43.9062 50.4919 44.5686C50.5349 45.284 50.5449 46.0093 50.4786 46.7181C50.4024 47.493 49.6606 48.0958 48.8757 48.1057C48.5081 48.1057 48.1272 48.1256 47.7629 48.0693C46.9482 47.9369 46.3851 47.2745 46.3619 46.4532C46.3454 45.7577 46.3553 45.0589 46.3619 44.3634C46.3619 44.0322 46.5507 43.8367 46.8786 43.8268C47.2164 43.8169 47.5509 43.8268 47.8987 43.8268C47.8987 44.625 47.8953 45.4033 47.8987 46.1716C47.902 46.5161 48.1404 46.7446 48.4716 46.7313C48.7465 46.7214 48.9651 46.5259 48.9783 46.251C49.0611 45.0488 48.932 43.8997 48.2828 42.8333C47.8457 42.1046 47.4714 41.333 47.0674 40.5845C46.5971 39.7035 46.3024 38.7796 46.3587 37.7662C46.3719 37.5211 46.3586 37.2758 46.3653 37.0341C46.3752 35.9975 47.1502 35.2358 48.1868 35.2358H48.7432C49.7235 35.2358 50.4919 35.9711 50.525 36.9613C50.5382 37.3985 50.5283 37.8356 50.525 38.2728C50.5217 38.5609 50.3528 38.7829 50.0878 38.7961C49.7367 38.8127 49.3857 38.7961 49.0114 38.7961" fill="white"/>
<path d="M10.13 30.334V18.3186C10.13 17.8218 10.2956 17.6562 10.7825 17.6562H13.6704C14.0744 17.6562 14.2566 17.8416 14.2599 18.2457C14.2665 18.5471 14.2632 18.8519 14.2632 19.1731C14.1771 19.1797 14.1043 19.1863 14.0248 19.1896C13.3459 19.1896 12.6636 19.1896 11.9813 19.1896C11.6998 19.1896 11.6733 19.2128 11.6733 19.4943C11.6733 20.6832 11.6733 21.8789 11.6733 23.0646V23.283H13.4518V24.7635H11.6866V28.8206H14.2433C14.2433 29.2213 14.2632 29.5956 14.2367 29.9698C14.2202 30.1917 14.0115 30.3573 13.783 30.3573C12.5874 30.3573 11.3852 30.3573 10.1896 30.3573C10.1896 30.3573 10.1631 30.344 10.1267 30.3308" fill="white"/>
<path d="M64.14 28.8206C64.14 29.208 64.1499 29.5525 64.1367 29.8969C64.1301 30.1486 63.9314 30.3573 63.6863 30.3573C62.4708 30.3672 61.2587 30.3605 60.0134 30.3605V18.2822C60.0134 17.8285 60.1856 17.6562 60.6394 17.6562H63.5472C63.9678 17.6562 64.1466 17.8417 64.1466 18.2623V19.1896H63.5538C62.9908 19.1896 62.4311 19.1896 61.8714 19.1896C61.5866 19.1896 61.5567 19.2162 61.5567 19.491V23.2963H63.3485V24.7734H61.57V28.8206H64.1466H64.14Z" fill="white"/>
<path d="M60.613 46.4663C60.613 46.8638 60.6263 47.2248 60.6064 47.5825C60.5964 47.8209 60.3977 48.0098 60.146 48.0131C58.9438 48.0164 57.735 48.0131 56.5096 48.0131C56.4997 47.9303 56.4897 47.8575 56.4897 47.778V35.938C56.4897 35.4711 56.6619 35.3054 57.1289 35.3054C58.0927 35.3054 59.0531 35.3054 60.0136 35.3054C60.4408 35.3054 60.613 35.481 60.6196 35.9049C60.6196 36.203 60.6196 36.501 60.6196 36.8355H59.0796C58.8047 36.8355 58.5332 36.8355 58.2616 36.8355C58.1192 36.8355 58.0298 36.8918 58.0298 37.0508C58.0298 38.3225 58.0298 39.5942 58.0298 40.8627C58.0298 40.8825 58.0397 40.8991 58.0529 40.9455H59.8182V42.4193H58.0397V46.4631H60.6097L60.613 46.4663Z" fill="white"/>
<path d="M45.2558 1.54074H44.259C43.8119 1.54074 43.3581 1.54074 42.9077 1.54074C42.7488 1.54074 42.6627 1.5971 42.6627 1.76601C42.666 3.03777 42.6693 4.30613 42.6693 5.57789C42.6693 5.59114 42.6792 5.60122 42.6924 5.64096H44.4478V7.11804H42.6792V11.1717H45.2426C45.2426 11.5757 45.2592 11.9467 45.2327 12.3176C45.2128 12.5726 44.9975 12.7117 44.7028 12.7117H41.1326V0.640004C41.1326 0.169718 41.2982 0.00415039 41.7618 0.00415039H44.6696C45.0604 0.00415039 45.2525 0.189531 45.2558 0.580332C45.2625 0.885024 45.2558 1.19631 45.2558 1.54074Z" fill="white"/>
<path d="M22.2779 1.54074V12.6952H20.675V1.54074H18.9098C18.9098 1.13338 18.8865 0.749276 18.9197 0.371723C18.9362 0.13658 19.1614 0.00415039 19.4264 0.00415039H23.4967C23.861 0.00415039 24.0564 0.189505 24.0663 0.553811C24.0663 0.828696 24.0564 1.10026 24.0663 1.37515C24.073 1.50762 24.0133 1.54074 23.8875 1.54074C23.4371 1.54074 22.9833 1.54074 22.5296 1.54074H22.2713H22.2779Z" fill="white"/>
<path d="M43.1625 17.6663H41.6589V30.3508H43.1625V17.6663Z" fill="white"/>
</svg>
