<svg width="115" height="13" viewBox="0 0 115 13" fill="none" xmlns="http://www.w3.org/2000/svg">
<path d="M6.60001 1.70001H4V9.60004H2.60001V1.70001H0V0.5H6.60001V1.70001Z" fill="black"/>
<path d="M13.5 9.60004H12.1V5.90002C12.1 4.70002 11.7 4.10004 10.8 4.10004C10.3 4.10004 9.99998 4.30004 9.69998 4.60004C9.39998 4.90004 9.19998 5.40002 9.19998 5.90002V9.60004H7.79999V0H9.19998V4.10004C9.69998 3.30004 10.4 2.90002 11.3 2.90002C12.8 2.90002 13.5 3.8 13.5 5.5V9.60004Z" fill="black"/>
<path d="M20.7 6.70001H16.3C16.4 8.00001 17 8.70001 18.3 8.70001C19 8.70001 19.7 8.50004 20.3 8.10004V9.20001C19.7 9.60001 19 9.80005 18 9.80005C17 9.80005 16.3 9.50002 15.7 8.90002C15.1 8.30002 14.9 7.50002 14.9 6.40002C14.9 5.40002 15.2 4.60002 15.8 3.90002C16.4 3.20002 17.1 2.90002 18 2.90002C18.9 2.90002 19.6 3.20001 20 3.70001C20.4 4.20001 20.7 5 20.7 6V6.70001ZM19.4 5.70001C19.4 5.10001 19.3 4.70002 19 4.40002C18.7 4.10002 18.4 4 17.9 4C17.5 4 17.1 4.2 16.8 4.5C16.5 4.8 16.3 5.20005 16.2 5.80005H19.4V5.70001Z" fill="black"/>
<path d="M25.8 4.40002C25.6 4.30002 25.3 4.20001 25 4.20001C24.6 4.20001 24.2 4.40005 23.9 4.80005C23.6 5.20005 23.5 5.70002 23.5 6.40002V9.60004H22.1V3.10004H23.5V4.40002C23.8 3.50002 24.4 3 25.2 3C25.4 3 25.6 3.00004 25.8 3.10004V4.40002Z" fill="black"/>
<path d="M36.5 9.60004H35.1V5.90002C35.1 5.30002 35 4.8 34.8 4.5C34.6 4.2 34.3 4.10004 33.8 4.10004C33.4 4.10004 33.1 4.30004 32.8 4.60004C32.5 4.90004 32.4 5.40002 32.4 5.90002V9.60004H31V5.80005C31 4.70005 30.6 4.10004 29.7 4.10004C29.3 4.10004 29 4.30004 28.7 4.60004C28.4 4.90004 28.3 5.40002 28.3 5.90002V9.60004H26.9V3.10004H28.3V4.10004C28.8 3.30004 29.4 2.90002 30.3 2.90002C31.2 2.90002 31.8 3.30001 32.1 4.20001C32.6 3.30001 33.3 2.90002 34.3 2.90002C35.7 2.90002 36.4 3.8 36.4 5.5V9.60004H36.5Z" fill="black"/>
<path d="M38.4 3.5C39.1 3.1 39.8 2.90002 40.7 2.90002C42.3 2.90002 43.2 3.70002 43.2 5.40002V9.5H41.9V8.5C41.5 9.3 40.8 9.60004 39.9 9.60004C39.3 9.60004 38.8 9.40004 38.4 9.10004C38 8.80004 37.9 8.30001 37.9 7.70001C37.9 6.50001 38.6 5.80004 40.1 5.60004L42 5.30005C42 4.30005 41.6 3.90002 40.7 3.90002C39.9 3.90002 39.2 4.20001 38.6 4.70001V3.5H38.4ZM40.4 6.60004C39.9 6.70004 39.6 6.8 39.4 7C39.2 7.2 39.1 7.40005 39.1 7.80005C39.1 8.10005 39.2 8.3 39.4 8.5C39.6 8.7 39.9 8.80005 40.2 8.80005C40.7 8.80005 41 8.60005 41.3 8.30005C41.6 8.00005 41.8 7.60004 41.8 7.10004V6.40002L40.4 6.60004Z" fill="black"/>
<path d="M45 9.60004V0H46.4V9.60004H45Z" fill="black"/>
<path d="M51.6 9.5C51.3 9.6 51 9.70001 50.5 9.70001C49.3 9.70001 48.7 9.00001 48.7 7.70001V4.20001H47.6V3.10004H48.7V1.60004L50.1 1.20001V3.10004H51.7V4.20001H50.1V7.5C50.1 7.9 50.2 8.20002 50.3 8.40002C50.4 8.60002 50.7 8.70001 51 8.70001C51.2 8.70001 51.5 8.6 51.7 8.5V9.5H51.6Z" fill="black"/>
<path d="M53.1 3.5C53.8 3.1 54.5 2.90002 55.4 2.90002C57 2.90002 57.9 3.70002 57.9 5.40002V9.5H56.6V8.5C56.2 9.3 55.5 9.60004 54.6 9.60004C54 9.60004 53.5 9.40004 53.1 9.10004C52.7 8.80004 52.6 8.30001 52.6 7.70001C52.6 6.50001 53.3 5.80004 54.8 5.60004L56.7 5.30005C56.7 4.30005 56.3 3.90002 55.4 3.90002C54.6 3.90002 53.9 4.20001 53.3 4.70001V3.5H53.1ZM55.1 6.60004C54.6 6.70004 54.3 6.8 54.1 7C53.9 7.2 53.8 7.40005 53.8 7.80005C53.8 8.10005 53.9 8.3 54.1 8.5C54.3 8.7 54.6 8.80005 54.9 8.80005C55.4 8.80005 55.7 8.60005 56 8.30005C56.3 8.00005 56.5 7.60004 56.5 7.10004V6.40002L55.1 6.60004Z" fill="black"/>
<path d="M65.4 9.60004H63.6L61 6.5V9.60004H59.6V0H61V6.10004L63.4 3.10004H65.1L62.3 6.20001L65.4 9.60004Z" fill="black"/>
<path d="M71.6 6.70001H67.1C67.2 8.00001 67.8 8.70001 69.1 8.70001C69.8 8.70001 70.5 8.50004 71.1 8.10004V9.20001C70.5 9.60001 69.8 9.80005 68.8 9.80005C67.8 9.80005 67.1 9.50002 66.5 8.90002C65.9 8.30002 65.7 7.50002 65.7 6.40002C65.7 5.40002 66 4.60002 66.6 3.90002C67.2 3.20002 67.9 2.90002 68.8 2.90002C69.7 2.90002 70.4 3.20001 70.8 3.70001C71.2 4.20001 71.5 5 71.5 6V6.70001H71.6ZM70.2 5.70001C70.2 5.10001 70.1 4.70002 69.8 4.40002C69.5 4.10002 69.2 4 68.7 4C68.3 4 67.9 4.2 67.6 4.5C67.3 4.8 67.1 5.20005 67 5.80005H70.2V5.70001Z" fill="black"/>
<path d="M76.2 9.60004V0.5H79C79.9 0.5 80.5 0.700037 81 1.10004C81.5 1.50004 81.7 2.00004 81.7 2.60004C81.7 3.10004 81.5 3.50002 81.2 3.90002C80.9 4.30002 80.5 4.50001 80 4.70001C80.6 4.80001 81.1 5.00002 81.5 5.40002C81.9 5.80002 82.1 6.30002 82.1 6.90002C82.1 7.70002 81.8 8.30005 81.3 8.80005C80.8 9.30005 80 9.5 79.1 9.5H76.2V9.60004ZM77.6 1.70001V4.40002H78.6C79.1 4.40002 79.6 4.3 79.8 4C80 3.7 80.2 3.40002 80.2 2.90002C80.2 2.10002 79.6 1.70001 78.5 1.70001H77.6ZM77.6 5.5V8.5H78.9C79.5 8.5 79.9 8.40004 80.2 8.10004C80.5 7.80004 80.7 7.5 80.7 7C80.7 6 80 5.60004 78.7 5.60004H77.6V5.5Z" fill="black"/>
<path d="M83.6 0.900024C83.6 0.700024 83.7 0.500049 83.8 0.300049C83.9 0.100049 84.2 0.100037 84.4 0.100037C84.6 0.100037 84.8 0.200049 85 0.300049C85.2 0.400049 85.2 0.600024 85.2 0.900024C85.2 1.20002 85.1 1.3 85 1.5C84.9 1.7 84.6 1.70001 84.4 1.70001C84.2 1.70001 84 1.6 83.8 1.5C83.6 1.4 83.6 1.10002 83.6 0.900024ZM83.7 9.60004V3.10004H85.1V9.60004H83.7Z" fill="black"/>
<path d="M91.6 9.30005C91.1 9.60005 90.5 9.70001 89.8 9.70001C88.9 9.70001 88.1 9.40005 87.5 8.80005C86.9 8.20005 86.6 7.4 86.6 6.5C86.6 5.4 86.9 4.60002 87.5 3.90002C88.1 3.20002 89 2.90002 90 2.90002C90.6 2.90002 91.2 3.00001 91.6 3.20001V4.5C91.1 4.2 90.6 4 90.1 4C89.5 4 89 4.20004 88.6 4.60004C88.2 5.00004 88 5.60005 88 6.30005C88 7.00005 88.2 7.50002 88.6 7.90002C89 8.30002 89.5 8.5 90.1 8.5C90.6 8.5 91.2 8.3 91.6 8V9.30005Z" fill="black"/>
<path d="M98.6 3.10004L95.7 10.4C95.1 11.9 94.3 12.6 93.2 12.6C92.8 12.6 92.6 12.6 92.3 12.5V11.4C92.5 11.5 92.8 11.6 93 11.6C93.5 11.6 93.9 11.3 94.1 10.7L94.6 9.60004L92 3.10004H93.5L95.1 7.70001C95.1 7.80001 95.2 8.00005 95.3 8.30005C95.3 8.20005 95.4 8.00001 95.5 7.70001L97.1 3.10004H98.6Z" fill="black"/>
<path d="M104.1 9.30005C103.6 9.60005 103 9.70001 102.3 9.70001C101.4 9.70001 100.6 9.40005 100 8.80005C99.4 8.20005 99.1 7.4 99.1 6.5C99.1 5.4 99.4 4.60002 100 3.90002C100.6 3.20002 101.5 2.90002 102.5 2.90002C103.1 2.90002 103.7 3.00001 104.1 3.20001V4.5C103.6 4.2 103.1 4 102.6 4C102 4 101.5 4.20004 101.1 4.60004C100.7 5.00004 100.5 5.60005 100.5 6.30005C100.5 7.00005 100.7 7.50002 101.1 7.90002C101.5 8.30002 102 8.5 102.6 8.5C103.1 8.5 103.7 8.3 104.1 8V9.30005Z" fill="black"/>
<path d="M105.6 9.60004V0H107V9.60004H105.6Z" fill="black"/>
<path d="M114.3 6.70001H109.8C109.9 8.00001 110.5 8.70001 111.8 8.70001C112.5 8.70001 113.2 8.50004 113.8 8.10004V9.20001C113.2 9.60001 112.5 9.80005 111.5 9.80005C110.5 9.80005 109.8 9.50002 109.2 8.90002C108.6 8.30002 108.4 7.50002 108.4 6.40002C108.4 5.40002 108.7 4.60002 109.3 3.90002C109.9 3.20002 110.6 2.90002 111.5 2.90002C112.4 2.90002 113.1 3.20001 113.5 3.70001C113.9 4.20001 114.2 5 114.2 6V6.70001H114.3ZM113 5.70001C113 5.10001 112.9 4.70002 112.6 4.40002C112.3 4.10002 112 4 111.5 4C111.1 4 110.7 4.2 110.4 4.5C110.1 4.8 109.9 5.20005 109.8 5.80005H113V5.70001Z" fill="black"/>
</svg>
