<?xml version="1.0" encoding="UTF-8"?>
<svg id="_圖層_1" data-name="圖層 1" xmlns="http://www.w3.org/2000/svg" viewBox="0 0 63.99 202.48">
  <defs>
    <style>
      .cls-1 {
        fill: #231815;
      }
    </style>
  </defs>
  <path class="cls-1" d="m55.18,199.73c-2.33-5.31-3.08-11.49-3.29-16.05.02-.6.02-1.21.02-1.82l.02.02s0-.12-.02-.36c0-.27,0-.54,0-.8,0-.97,0-1.94-.03-2.9.02-.44.04-.69.04-.69l-.05.04c0-.25,0-.5-.02-.75.11-3.82.61-9.09,2.21-14.03-6.24,5.03-13.95,7.78-22.08,7.78s-16.41-2.96-22.76-8.36c1.93,5.07,2.61,10.7,2.78,14.9,0,.38-.02.75-.03,1.13l-.03-.02s.02.11.02.27c0,.88-.02,1.76-.02,2.64,0,.69.02,1.37.02,2.05,0,.12-.02.18-.02.18h.02c.01.47.02.95.03,1.42-.2,4.57-.95,10.74-3.27,16.06-.25.57-.51,1.08-.75,1.62,6.3-5.87,14.73-9.5,24.01-9.5s18.12,3.8,24.48,9.93c-.42-.88-.85-1.78-1.28-2.74Z"/>
  <path class="cls-1" d="m45.34,128c0-7.33-5.94-13.26-13.26-13.26s-13.27,5.94-13.27,13.26,5.94,13.26,13.27,13.26c7.33,0,13.26-5.94,13.26-13.26Zm0-94.42c0-7.33-5.93-13.26-13.27-13.26s-13.26,5.94-13.26,13.26,5.94,13.26,13.27,13.26,13.26-5.94,13.26-13.26Zm18.61,94.28c0-.24-.02-.48-.02-.73,0-.72.02-1.62.02-2.73,0-11.27-4.45-16.29-8.75-26.08-2.33-5.3-3.08-11.49-3.29-16.05.02-.6.02-1.21.02-1.81l.02.02s0-.13-.02-.36c0-.27,0-.54,0-.81,0-.97,0-1.94-.03-2.89.02-.45.04-.7.04-.7l-.05.04c0-.25,0-.5-.02-.76.14-4.61.8-11.33,3.33-17.04,4.31-9.76,9.4-14.78,8.75-25.99C63.94,14.31,49.63,0,31.98,0,14.33,0,.02,14.31.02,31.96c0,.21,0,.41.02.62,0,.15-.02.29-.02.45-.37,11.22,4.43,16.23,8.7,25.98,2.36,5.4,3.09,11.7,3.27,16.27,0,.38-.02.75-.03,1.13l-.03-.02s.02.1.02.27c0,.88-.02,1.76-.02,2.64,0,.69.02,1.37.02,2.06,0,.12-.02.18-.02.18h.02c.01.46.02.94.03,1.41-.2,4.56-.95,10.74-3.27,16.05C4.45,108.8.02,113.82.02,125.09c0,.9,0,1.65,0,2.29,0,.17,0,.32,0,.49,0,17.65,14.31,31.96,31.96,31.96,17.65,0,31.96-14.31,31.96-31.96ZM12.79,33.58c0-10.65,8.63-19.29,19.29-19.29,10.64,0,19.27,8.63,19.27,19.29,0,10.65-8.62,19.28-19.27,19.28s-19.29-8.63-19.29-19.28Zm0,94.42c0-10.65,8.63-19.28,19.29-19.28s19.27,8.63,19.28,19.28c0,10.65-8.64,19.28-19.28,19.28-10.66,0-19.29-8.63-19.29-19.28Z"/>
</svg>